# Blender v2.78 (sub 0) OBJ File: ''
# www.blender.org
o MEP_Palm_04
v 0.095826 3.018034 0.206580
v -0.096698 3.157029 0.222463
v 0.237565 3.712675 0.351045
v 0.025911 2.820208 0.051621
v -0.032635 3.652432 0.047478
v 0.001172 2.839127 0.310373
v -0.132897 0.169378 0.005362
v -0.308840 1.262406 0.301903
v 0.041214 0.369768 -0.225608
v 0.135033 0.273705 -0.206417
v -0.048473 0.348247 -0.049926
v 0.240180 1.082240 -0.200922
v 0.069256 1.672520 0.135658
v 0.039287 1.631421 -0.149354
v 0.043664 2.577475 -0.192881
v -0.119890 2.047975 -0.016067
v -0.267469 2.709897 0.086212
v 0.061094 2.107872 0.078199
v 0.125947 1.501055 0.030874
v -0.144792 1.737446 -0.027597
v 0.294795 2.598449 0.312371
v 0.018823 0.837884 -0.119706
v -0.261747 1.973631 -0.250291
v 0.127507 0.975322 0.168355
v 0.117964 0.731726 0.111403
v 0.293270 1.703340 0.191310
v -0.160770 0.854476 -0.041041
v -0.182792 -0.210726 -0.054124
v -0.090967 2.003075 0.027186
v 0.086553 -0.239385 -0.216660
v 0.068678 2.002031 -0.066995
v 0.086553 -0.182984 0.103211
v 0.064496 1.979007 0.122153
v -0.079392 3.739048 0.364909
v 0.033992 3.755354 0.291577
v 0.038926 3.727581 0.428555
v 0.093589 4.569582 0.751722
v 0.797413 5.498354 0.522081
v -0.040615 3.853247 0.442537
v 0.533271 4.509063 0.900904
v 1.322651 5.934146 -0.251862
v 1.591110 5.735420 -0.560563
v 0.515286 4.564320 1.105329
v 0.721930 4.303670 1.170183
v 1.535736 5.327588 1.569547
v -0.010985 3.889136 0.472372
v 0.524218 4.755544 0.825688
v 1.224951 5.354455 1.265898
v -0.062966 5.114756 1.432382
v 0.371022 4.505618 0.842744
v -0.008277 3.860447 0.421217
v -0.685091 5.765123 1.416445
v -0.859460 5.933840 1.102525
v -0.070205 3.881186 0.285958
v -1.498787 4.503934 1.983360
v 0.132169 4.531898 1.845930
v 0.799680 3.971518 1.190999
v -0.361095 4.508528 2.862783
v 0.378929 4.247904 2.814420
v 1.185629 3.867459 2.153945
v -0.098022 3.779806 0.496553
v 1.689102 3.968665 1.938897
v 1.144619 4.920901 0.723796
v 0.506776 4.688884 -0.129349
v 2.224464 4.968368 1.054744
v 2.059542 5.209783 0.325074
v 1.336153 5.188304 -0.516340
v 0.151850 3.787424 0.407743
v 0.894890 5.890463 -0.171014
v -0.413990 5.372294 0.664463
v -0.913179 4.403138 0.673385
v -0.416142 6.382115 0.156428
v -1.113427 6.049533 0.301625
v -1.663300 5.112930 0.529984
v 0.797413 5.498354 0.522081
v 0.533271 4.509063 0.900904
v -0.040615 3.853247 0.442537
v 1.322651 5.934146 -0.251862
v 1.591110 5.735420 -0.560563
v 0.515286 4.564320 1.105329
v 1.535736 5.327588 1.569547
v 0.721930 4.303670 1.170183
v -0.010985 3.889136 0.472372
v 0.524218 4.755544 0.825688
v 1.224951 5.354455 1.265898
v -0.062966 5.114756 1.432382
v -0.008277 3.860447 0.421217
v 0.371022 4.505618 0.842744
v -0.685091 5.765123 1.416445
v -0.859460 5.933840 1.102525
v -0.070205 3.881186 0.285958
v 0.132169 4.531898 1.845930
v -1.498787 4.503934 1.983360
v 0.799680 3.971518 1.190999
v -0.361095 4.508528 2.862783
v 1.185629 3.867459 2.153945
v 0.378929 4.247904 2.814420
v -0.098022 3.779806 0.496553
v 1.144619 4.920901 0.723796
v 1.689102 3.968665 1.938897
v 0.506776 4.688884 -0.129349
v 2.224464 4.968368 1.054744
v 1.336153 5.188304 -0.516340
v 2.059542 5.209783 0.325074
v 0.151850 3.787424 0.407743
v -0.413990 5.372294 0.664463
v 0.894890 5.890463 -0.171014
v -0.913179 4.403138 0.673385
v -0.416142 6.382115 0.156428
v -1.663300 5.112930 0.529984
v -1.113427 6.049533 0.301625
v 0.095826 3.018034 0.206580
v 0.237565 3.712675 0.351045
v -0.096698 3.157029 0.222463
v 0.025911 2.820208 0.051621
v 0.001172 2.839127 0.310373
v -0.032635 3.652432 0.047478
v -0.132897 0.169378 0.005362
v 0.041214 0.369768 -0.225608
v -0.308840 1.262406 0.301903
v 0.135033 0.273705 -0.206417
v 0.240180 1.082240 -0.200922
v -0.048473 0.348247 -0.049926
v 0.069256 1.672520 0.135658
v 0.043664 2.577475 -0.192881
v 0.039287 1.631421 -0.149354
v -0.119890 2.047975 -0.016067
v 0.061094 2.107872 0.078199
v -0.267469 2.709897 0.086212
v 0.125947 1.501055 0.030874
v 0.294795 2.598449 0.312371
v -0.144792 1.737446 -0.027597
v 0.018823 0.837884 -0.119706
v 0.127507 0.975322 0.168355
v -0.261747 1.973631 -0.250291
v 0.117964 0.731726 0.111403
v -0.160770 0.854476 -0.041041
v 0.293270 1.703340 0.191310
vt 0.6960 0.9551
vt 0.6965 0.9173
vt 0.8571 0.9420
vt 0.6960 0.9551
vt 0.8571 0.9420
vt 0.6965 0.9173
vt 0.6960 0.9551
vt 0.8846 0.9281
vt 0.6965 0.9173
vt 0.6960 0.9551
vt 0.6965 0.9173
vt 0.8571 0.9420
vt 0.6960 0.9551
vt 0.6965 0.9173
vt 0.8712 0.9279
vt 0.6960 0.9551
vt 0.8571 0.9420
vt 0.6965 0.9173
vt 0.6960 0.9551
vt 0.6965 0.9173
vt 0.8571 0.9420
vt 0.6960 0.9551
vt 0.8571 0.9420
vt 0.6965 0.9173
vt 0.6960 0.9551
vt 0.8571 0.9420
vt 0.6965 0.9173
vt 0.0030 0.6510
vt 0.0030 0.7662
vt 0.0562 0.6510
vt 0.0562 0.7662
vt 0.0031 0.6510
vt 0.0031 0.7662
vt 0.0548 0.7662
vt 0.0548 0.6510
vt 0.0030 0.9746
vt 0.0562 0.9746
vt 0.0562 0.9199
vt 0.0031 0.9199
vt 0.0548 0.9788
vt 0.0031 0.9788
vt 0.0313 0.9965
vt 0.0031 0.9965
vt 0.0292 0.9965
vt 0.3277 0.9951
vt 0.7876 0.7683
vt 0.5965 0.9865
vt 0.1127 0.8747
vt 0.0635 0.7826
vt 0.8886 0.3344
vt 0.9959 0.3525
vt 0.9213 0.9103
vt 0.8790 -0.0050
vt 0.7749 0.3234
vt 0.8057 0.7607
vt 0.3277 0.9951
vt 0.5965 0.9865
vt 0.7876 0.7683
vt 0.1127 0.8747
vt 0.0635 0.7826
vt 0.0029 0.0012
vt 0.8023 0.0034
vt 0.4004 0.3654
vt 0.0149 0.3899
vt 0.7120 0.4582
vt 0.5489 0.6678
vt 0.1797 0.7809
vt 0.0029 0.0012
vt 0.8023 0.0034
vt 0.4004 0.3654
vt 0.0149 0.3899
vt 0.7120 0.4582
vt 0.5489 0.6678
vt 0.1797 0.7809
vt 0.0029 0.0012
vt 0.8023 0.0034
vt 0.4004 0.3654
vt 0.0149 0.3899
vt 0.7120 0.4582
vt 0.5489 0.6678
vt 0.1797 0.7809
vt 0.3277 0.9951
vt 0.5965 0.9865
vt 0.7876 0.7683
vt 0.1127 0.8747
vt 0.0635 0.7826
vt 0.8886 0.3344
vt 0.9213 0.9103
vt 0.9959 0.3525
vt 0.8790 -0.0050
vt 0.7749 0.3234
vt 0.8057 0.7607
vt 0.3277 0.9951
vt 0.7876 0.7683
vt 0.5965 0.9865
vt 0.1127 0.8747
vt 0.0635 0.7826
vt 0.0029 0.0012
vt 0.4004 0.3654
vt 0.8023 0.0034
vt 0.0149 0.3899
vt 0.7120 0.4582
vt 0.1797 0.7809
vt 0.5489 0.6678
vt 0.0029 0.0012
vt 0.4004 0.3654
vt 0.8023 0.0034
vt 0.0149 0.3899
vt 0.7120 0.4582
vt 0.1797 0.7809
vt 0.5489 0.6678
vt 0.0029 0.0012
vt 0.4004 0.3654
vt 0.8023 0.0034
vt 0.0149 0.3899
vt 0.7120 0.4582
vt 0.1797 0.7809
vt 0.5489 0.6678
vt 0.6960 0.9551
vt 0.8571 0.9420
vt 0.6965 0.9173
vt 0.6960 0.9551
vt 0.6965 0.9173
vt 0.8571 0.9420
vt 0.6960 0.9551
vt 0.6965 0.9173
vt 0.8846 0.9281
vt 0.6960 0.9551
vt 0.8571 0.9420
vt 0.6965 0.9173
vt 0.6960 0.9551
vt 0.8712 0.9279
vt 0.6965 0.9173
vt 0.6960 0.9551
vt 0.6965 0.9173
vt 0.8571 0.9420
vt 0.6960 0.9551
vt 0.8571 0.9420
vt 0.6965 0.9173
vt 0.6960 0.9551
vt 0.6965 0.9173
vt 0.8571 0.9420
vt 0.6960 0.9551
vt 0.6965 0.9173
vt 0.8571 0.9420
vn 0.0578 0.1920 -0.9797
vn 0.9935 0.0703 0.0898
vn -0.8100 0.0286 -0.5858
vn -0.6258 0.0867 -0.7751
vn 0.9946 -0.0094 -0.1032
vn 0.3905 0.2250 -0.8927
vn 0.3557 0.1805 -0.9170
vn 0.8917 0.1722 -0.4186
vn -0.4752 0.0134 0.8798
vn -0.9922 0.0447 -0.1168
vn -0.9990 0.0266 -0.0372
vn 0.4363 0.0644 -0.8975
vn 0.4791 0.1213 -0.8694
vn 0.5347 -0.0022 0.8450
vn 0.5136 -0.0673 0.8554
vn -0.9944 0.1050 -0.0099
vn 0.4278 0.3071 -0.8501
vn 0.5206 -0.2436 0.8183
vn 0.1036 0.9003 0.4227
vn -0.8697 0.4526 -0.1969
vn -0.9042 0.4271 -0.0006
vn -0.8036 0.3875 0.4517
vn -0.7333 0.2725 -0.6230
vn -0.6711 0.2016 -0.7134
vn -0.7142 0.1826 0.6757
vn -0.4798 -0.1660 0.8616
vn -0.5744 0.3062 0.7592
vn -0.8111 0.0906 0.5778
vn -0.7968 0.5103 0.3235
vn -0.6353 0.4418 0.6334
vn 0.4617 0.5688 -0.6806
vn -0.1860 0.6117 -0.7689
vn 0.2762 0.6332 -0.7230
vn 0.8058 0.4727 -0.3567
vn 0.8655 0.4362 -0.2463
vn 0.1299 0.9090 -0.3960
vn -0.0334 0.9798 -0.1970
vn 0.2370 0.9545 -0.1808
vn 0.4355 0.8534 -0.2863
vn -0.0159 0.9998 0.0153
vn 0.5036 0.8552 0.1225
vn 0.5357 0.8443 -0.0108
vn -0.6323 0.5882 0.5042
vn -0.4233 0.6113 0.6687
vn -0.4696 0.7615 0.4467
vn -0.5924 0.7711 0.2332
vn -0.2343 0.7114 0.6625
vn -0.2279 0.9585 0.1715
vn -0.3578 0.9227 0.1437
vn 0.3751 -0.0162 0.9268
vn 0.4580 0.2284 0.8591
vn 0.2146 0.1649 0.9627
vn 0.0536 -0.0184 0.9984
vn 0.3648 0.4191 0.8314
vn -0.1677 0.3254 0.9306
vn -0.1450 0.1956 0.9699
vn 0.8697 -0.4526 0.1969
vn 0.8036 -0.3875 -0.4517
vn 0.9042 -0.4271 0.0006
vn 0.7333 -0.2725 0.6230
vn 0.6711 -0.2016 0.7134
vn 0.7142 -0.1826 -0.6757
vn 0.5744 -0.3062 -0.7592
vn 0.4798 0.1660 -0.8616
vn 0.8111 -0.0906 -0.5778
vn 0.7968 -0.5103 -0.3235
vn 0.6353 -0.4418 -0.6334
vn -0.4617 -0.5688 0.6806
vn -0.2762 -0.6332 0.7230
vn 0.1860 -0.6117 0.7689
vn -0.8058 -0.4727 0.3567
vn -0.8655 -0.4362 0.2463
vn -0.1299 -0.9090 0.3960
vn -0.2370 -0.9545 0.1808
vn 0.0334 -0.9798 0.1970
vn -0.4355 -0.8534 0.2863
vn 0.0159 -0.9998 -0.0153
vn -0.5357 -0.8443 0.0108
vn -0.5036 -0.8552 -0.1225
vn 0.6323 -0.5882 -0.5042
vn 0.4696 -0.7615 -0.4467
vn 0.4233 -0.6113 -0.6687
vn 0.5924 -0.7711 -0.2332
vn 0.2343 -0.7114 -0.6625
vn 0.3578 -0.9227 -0.1437
vn 0.2279 -0.9585 -0.1715
vn -0.3751 0.0162 -0.9268
vn -0.2146 -0.1649 -0.9627
vn -0.4580 -0.2284 -0.8591
vn -0.0536 0.0184 -0.9984
vn -0.3648 -0.4191 -0.8314
vn 0.1450 -0.1956 -0.9699
vn 0.1677 -0.3254 -0.9306
vn -0.0578 -0.1920 0.9797
vn -0.9935 -0.0703 -0.0898
vn 0.8100 -0.0286 0.5858
vn 0.6258 -0.0867 0.7751
vn -0.9946 0.0094 0.1032
vn -0.3905 -0.2250 0.8927
vn -0.3557 -0.1805 0.9170
vn -0.8917 -0.1722 0.4186
vn 0.4752 -0.0134 -0.8798
s 1
f 1/1/1 2/2/1 3/3/1
f 4/4/2 5/5/2 6/6/2
f 7/7/3 8/8/3 9/9/3
f 10/10/4 11/11/4 12/12/4
f 13/13/5 14/14/5 15/15/5
f 16/16/6 17/17/6 18/18/6
f 19/19/7 20/20/7 21/21/7
f 22/22/8 23/23/8 24/24/8
f 25/25/9 26/26/9 27/27/9
f 28/28/10 29/29/11 30/30/12
f 30/30/12 29/29/11 31/31/13
f 30/30/12 31/31/13 32/32/14
f 32/32/14 31/31/13 33/33/15
f 29/34/11 28/35/10 33/33/15
f 33/33/15 28/35/10 32/32/14
f 29/29/11 34/36/16 31/31/13
f 31/31/13 34/36/16 35/37/17
f 31/31/13 35/38/17 33/33/15
f 33/33/15 35/38/17 36/39/18
f 34/40/16 29/34/11 36/41/18
f 36/41/18 29/34/11 33/33/15
f 37/42/19 35/37/17 34/36/16
f 37/43/19 36/39/18 35/38/17
f 37/44/19 34/40/16 36/41/18
f 38/45/20 39/46/21 40/47/22
f 38/45/20 41/48/23 39/46/21
f 41/48/23 42/49/24 39/46/21
f 43/50/25 44/51/26 45/52/27
f 43/50/25 46/53/28 44/51/26
f 47/54/29 43/50/25 48/55/30
f 46/53/28 43/50/25 47/54/29
f 43/50/25 45/52/27 48/55/30
f 49/56/31 50/57/32 51/58/33
f 49/56/31 51/58/33 52/59/34
f 52/59/34 51/58/33 53/60/35
f 54/61/36 55/62/37 56/63/38
f 54/61/36 56/63/38 57/64/39
f 55/62/37 58/65/40 56/63/38
f 56/63/38 59/66/41 60/67/42
f 56/63/38 60/67/42 57/64/39
f 61/68/43 62/69/44 63/70/45
f 61/68/43 63/70/45 64/71/46
f 62/69/44 65/72/47 63/70/45
f 63/70/45 66/73/48 67/74/49
f 63/70/45 67/74/49 64/71/46
f 68/75/50 69/76/51 70/77/52
f 68/75/50 70/77/52 71/78/53
f 69/76/51 72/79/54 70/77/52
f 70/77/52 73/80/55 74/81/56
f 70/77/52 74/81/56 71/78/53
f 75/82/57 76/83/58 77/84/59
f 75/82/57 77/84/59 78/85/60
f 78/85/60 77/84/59 79/86/61
f 80/87/62 81/88/63 82/89/64
f 80/87/62 82/89/64 83/90/65
f 84/91/66 85/92/67 80/87/62
f 83/90/65 84/91/66 80/87/62
f 80/87/62 85/92/67 81/88/63
f 86/93/68 87/94/69 88/95/70
f 86/93/68 89/96/71 87/94/69
f 89/96/71 90/97/72 87/94/69
f 91/98/73 92/99/74 93/100/75
f 91/98/73 94/101/76 92/99/74
f 93/100/75 92/99/74 95/102/77
f 92/99/74 96/103/78 97/104/79
f 92/99/74 94/101/76 96/103/78
f 98/105/80 99/106/81 100/107/82
f 98/105/80 101/108/83 99/106/81
f 100/107/82 99/106/81 102/109/84
f 99/106/81 103/110/85 104/111/86
f 99/106/81 101/108/83 103/110/85
f 105/112/87 106/113/88 107/114/89
f 105/112/87 108/115/90 106/113/88
f 107/114/89 106/113/88 109/116/91
f 106/113/88 110/117/92 111/118/93
f 106/113/88 108/115/90 110/117/92
f 112/119/94 113/120/94 114/121/94
f 115/122/95 116/123/95 117/124/95
f 118/125/96 119/126/96 120/127/96
f 121/128/97 122/129/97 123/130/97
f 124/131/98 125/132/98 126/133/98
f 127/134/99 128/135/99 129/136/99
f 130/137/100 131/138/100 132/139/100
f 133/140/101 134/141/101 135/142/101
f 136/143/102 137/144/102 138/145/102
