# Blender v2.78 (sub 0) OBJ File: ''
# www.blender.org
o Cylinder
v 1.001333 0.400000 -0.373838
v -1.001333 0.400000 -0.373838
v 1.001333 0.664343 -0.264343
v -1.001333 0.664344 -0.264344
v 1.001333 0.773838 0.000000
v -1.001333 0.773838 0.000000
v 1.001333 0.664343 0.264344
v -1.001333 0.664343 0.264344
v 1.001333 0.400000 0.373838
v -1.001333 0.400000 0.373838
v 1.001333 0.135656 0.264343
v -1.001333 0.135657 0.264343
v 1.001333 0.026162 -0.000000
v -1.001333 0.026162 -0.000000
v 1.001333 0.135656 -0.264343
v -1.001333 0.135657 -0.264344
v 1.001333 1.100000 -0.373838
v -1.001333 1.100000 -0.373838
v 1.001333 1.364343 -0.264343
v -1.001333 1.364344 -0.264344
v 1.001333 1.473838 0.000000
v -1.001333 1.473838 0.000000
v 1.001333 1.364343 0.264344
v -1.001333 1.364343 0.264344
v 1.001333 1.100000 0.373838
v -1.001333 1.100000 0.373838
v 1.001333 0.835656 0.264343
v -1.001333 0.835657 0.264343
v 1.001333 0.726162 -0.000000
v -1.001333 0.726162 -0.000000
v 1.001333 0.835656 -0.264343
v -1.001333 0.835657 -0.264344
v 1.001333 1.800000 -0.373838
v -1.001333 1.800000 -0.373838
v 1.001333 2.064343 -0.264343
v -1.001333 2.064344 -0.264344
v 1.001333 2.173838 0.000000
v -1.001333 2.173838 0.000000
v 1.001333 2.064343 0.264344
v -1.001333 2.064343 0.264344
v 1.001333 1.800000 0.373838
v -1.001333 1.800000 0.373838
v 1.001333 1.535656 0.264343
v -1.001333 1.535657 0.264343
v 1.001333 1.426162 -0.000000
v -1.001333 1.426162 -0.000000
v 1.001333 1.535656 -0.264343
v -1.001333 1.535657 -0.264344
v 1.001333 2.500000 -0.373838
v -1.001333 2.500000 -0.373838
v 1.001333 2.764344 -0.264343
v -1.001333 2.764344 -0.264344
v 1.001333 2.873838 0.000000
v -1.001333 2.873838 0.000000
v 1.001333 2.764344 0.264344
v -1.001333 2.764344 0.264344
v 1.001333 2.500000 0.373838
v -1.001333 2.500000 0.373838
v 1.001333 2.235656 0.264343
v -1.001333 2.235656 0.264343
v 1.001333 2.126162 -0.000000
v -1.001333 2.126162 -0.000000
v 1.001333 2.235656 -0.264343
v -1.001333 2.235656 -0.264344
v 1.001333 3.200000 -0.373838
v -1.001333 3.200000 -0.373838
v 1.001333 3.464344 -0.264343
v -1.001333 3.464344 -0.264344
v 1.001333 3.573838 0.000000
v -1.001333 3.573838 0.000000
v 1.001333 3.464344 0.264344
v -1.001333 3.464344 0.264344
v 1.001333 3.200000 0.373838
v -1.001333 3.200000 0.373838
v 1.001333 2.935657 0.264343
v -1.001333 2.935657 0.264343
v 1.001333 2.826162 -0.000000
v -1.001333 2.826162 -0.000000
v 1.001333 2.935657 -0.264343
v -1.001333 2.935657 -0.264344
v 1.001333 3.900000 -0.373838
v -1.001333 3.900000 -0.373838
v 1.001333 4.164343 -0.264343
v -1.001333 4.164344 -0.264344
v 1.001333 4.273838 0.000000
v -1.001333 4.273838 0.000000
v 1.001333 4.164343 0.264344
v -1.001333 4.164343 0.264344
v 1.001333 3.900000 0.373838
v -1.001333 3.900000 0.373838
v 1.001333 3.635657 0.264343
v -1.001333 3.635657 0.264343
v 1.001333 3.526162 -0.000000
v -1.001333 3.526162 -0.000000
v 1.001333 3.635657 -0.264343
v -1.001333 3.635657 -0.264344
v 1.001333 4.600000 -0.373838
v -1.001333 4.600000 -0.373838
v 1.001333 4.864343 -0.264343
v -1.001333 4.864344 -0.264344
v 1.001333 4.973838 0.000000
v -1.001333 4.973838 0.000000
v 1.001333 4.864343 0.264344
v -1.001333 4.864343 0.264344
v 1.001333 4.600000 0.373838
v -1.001333 4.600000 0.373838
v 1.001333 4.335657 0.264343
v -1.001333 4.335657 0.264343
v 1.001333 4.226162 -0.000000
v -1.001333 4.226162 -0.000000
v 1.001333 4.335657 -0.264343
v -1.001333 4.335657 -0.264344
vt 0.1677 0.9746
vt 0.0292 0.9172
vt 0.2250 0.8361
vt 0.0847 0.9724
vt 0.0273 0.8340
vt 0.1658 0.7766
vt 0.0866 0.9746
vt 0.0292 0.9172
vt 0.0866 0.7787
vt 0.0847 0.9724
vt 0.0273 0.8340
vt 0.1658 0.7766
vt 0.1677 0.9746
vt 0.0292 0.9172
vt 0.0866 0.7787
vt 0.0847 0.9724
vt 0.0273 0.8340
vt 0.1658 0.7766
vt 0.1677 0.9746
vt 0.0292 0.9172
vt 0.0866 0.7787
vt 0.0847 0.9724
vt 0.0273 0.8340
vt 0.1658 0.7766
vt 0.1677 0.9746
vt 0.0292 0.9172
vt 0.0866 0.7787
vt 0.0847 0.9724
vt 0.0273 0.8340
vt 0.1658 0.7766
vt 0.1677 0.9746
vt 0.0292 0.9172
vt 0.0866 0.7787
vt 0.0847 0.9724
vt 0.0273 0.8340
vt 0.2232 0.9151
vt 0.0866 0.9746
vt 0.0292 0.9172
vt 0.0866 0.7787
vt 0.0847 0.9724
vt 0.0273 0.8340
vt 0.2232 0.9151
vt 0.0866 0.7787
vt 0.1677 0.7787
vt 0.2250 0.9172
vt 0.0866 0.9746
vt 0.0292 0.8361
vt 0.2232 0.8340
vt 0.2232 0.9151
vt 0.1658 0.9724
vt 0.0273 0.9151
vt 0.0847 0.7766
vt 0.1677 0.7787
vt 0.2250 0.8361
vt 0.2250 0.9172
vt 0.1677 0.9746
vt 0.0292 0.8361
vt 0.2232 0.8340
vt 0.2232 0.9151
vt 0.1658 0.9724
vt 0.0273 0.9151
vt 0.0847 0.7766
vt 0.1677 0.7787
vt 0.2250 0.8361
vt 0.2250 0.9172
vt 0.0866 0.9746
vt 0.0292 0.8361
vt 0.2232 0.8340
vt 0.2232 0.9151
vt 0.1658 0.9724
vt 0.0273 0.9151
vt 0.0847 0.7766
vt 0.1677 0.7787
vt 0.2250 0.8361
vt 0.2250 0.9172
vt 0.0866 0.9746
vt 0.0292 0.8361
vt 0.2232 0.8340
vt 0.2232 0.9151
vt 0.1658 0.9724
vt 0.0273 0.9151
vt 0.0847 0.7766
vt 0.1677 0.7787
vt 0.2250 0.8361
vt 0.2250 0.9172
vt 0.0866 0.9746
vt 0.0292 0.8361
vt 0.2232 0.8340
vt 0.2232 0.9151
vt 0.1658 0.9724
vt 0.0273 0.9151
vt 0.0847 0.7766
vt 0.1677 0.7787
vt 0.2250 0.8361
vt 0.2250 0.9172
vt 0.0866 0.9746
vt 0.0292 0.8361
vt 0.1658 0.7766
vt 0.2232 0.8340
vt 0.1658 0.9724
vt 0.0273 0.9151
vt 0.0847 0.7766
vt 0.1677 0.7787
vt 0.2250 0.8361
vt 0.2250 0.9172
vt 0.1677 0.9746
vt 0.0292 0.8361
vt 0.1658 0.7766
vt 0.2232 0.8340
vt 0.1658 0.9724
vt 0.0273 0.9151
vt 0.0847 0.7766
vt 0.0001 0.0753
vt 0.8726 0.0001
vt 0.8726 0.0753
vt 0.8726 0.6019
vt 0.0001 0.5267
vt 0.8726 0.5267
vt 0.8726 0.4515
vt 0.0001 0.4515
vt 0.8726 0.3762
vt 0.0001 0.3010
vt 0.8726 0.3010
vt 0.8726 0.2258
vt 0.0001 0.2258
vt 0.8726 0.1506
vt 0.0001 0.1506
vt 0.0001 0.0753
vt 0.8726 0.0001
vt 0.8726 0.0753
vt 0.0001 0.6019
vt 0.8726 0.5267
vt 0.8726 0.6019
vt 0.0001 0.5267
vt 0.8726 0.4515
vt 0.0001 0.4515
vt 0.8726 0.3762
vt 0.0001 0.3762
vt 0.8726 0.3010
vt 0.0001 0.2258
vt 0.8726 0.2258
vt 0.0001 0.1506
vt 0.8726 0.1506
vt 0.0001 0.0753
vt 0.8726 0.0001
vt 0.8726 0.0753
vt 0.0001 0.6019
vt 0.8726 0.5267
vt 0.8726 0.6019
vt 0.0001 0.5267
vt 0.8726 0.4515
vt 0.0001 0.4515
vt 0.8726 0.3762
vt 0.0001 0.3762
vt 0.8726 0.3010
vt 0.0001 0.3010
vt 0.8726 0.2258
vt 0.0001 0.2258
vt 0.8726 0.1506
vt 0.0001 0.1506
vt 0.0001 0.0753
vt 0.8726 0.0001
vt 0.8726 0.0753
vt 0.0001 0.6019
vt 0.8726 0.5267
vt 0.8726 0.6019
vt 0.0001 0.5267
vt 0.8726 0.4515
vt 0.0001 0.4515
vt 0.8726 0.3762
vt 0.0001 0.3762
vt 0.8726 0.3010
vt 0.0001 0.3010
vt 0.8726 0.2258
vt 0.0001 0.2258
vt 0.8726 0.1506
vt 0.0001 0.1506
vt 0.0001 0.0753
vt 0.8726 0.0001
vt 0.8726 0.0753
vt 0.0001 0.6019
vt 0.8726 0.5267
vt 0.8726 0.6019
vt 0.0001 0.5267
vt 0.8726 0.4515
vt 0.0001 0.4515
vt 0.8726 0.3762
vt 0.0001 0.3762
vt 0.8726 0.3010
vt 0.0001 0.3010
vt 0.8726 0.2258
vt 0.0001 0.2258
vt 0.8726 0.1506
vt 0.0001 0.1506
vt 0.0001 0.0753
vt 0.8726 0.0001
vt 0.8726 0.0753
vt 0.0001 0.6019
vt 0.8726 0.5267
vt 0.8726 0.6019
vt 0.0001 0.5267
vt 0.8726 0.4515
vt 0.0001 0.4515
vt 0.8726 0.3762
vt 0.0001 0.3762
vt 0.8726 0.3010
vt 0.0001 0.3010
vt 0.8726 0.2258
vt 0.0001 0.2258
vt 0.8726 0.1506
vt 0.0001 0.1506
vt 0.0001 0.0753
vt 0.8726 0.0001
vt 0.8726 0.0753
vt 0.0001 0.6019
vt 0.8726 0.5267
vt 0.8726 0.6019
vt 0.0001 0.5267
vt 0.8726 0.4515
vt 0.0001 0.4515
vt 0.8726 0.3762
vt 0.0001 0.3010
vt 0.8726 0.3010
vt 0.8726 0.2258
vt 0.0001 0.2258
vt 0.8726 0.1506
vt 0.0001 0.1506
vt 0.0001 0.0001
vt 0.0001 0.6019
vt 0.0001 0.3762
vt 0.0001 0.0001
vt 0.0001 0.3010
vt 0.0001 0.0001
vt 0.0001 0.0001
vt 0.0001 0.0001
vt 0.0001 0.0001
vt 0.0001 0.0001
vt 0.0001 0.3762
vn -1.0000 0.0000 -0.0000
vn 1.0000 0.0000 0.0000
vn -0.6302 0.0000 -0.7764
vn 0.6302 0.5490 -0.5490
vn 0.6302 0.0000 -0.7764
vn -0.6302 0.7764 0.0000
vn 0.6302 0.7764 0.0000
vn 0.6302 0.5490 0.5490
vn -0.6302 0.5490 0.5490
vn 0.6302 0.0000 0.7764
vn -0.6302 -0.5490 0.5490
vn 0.6302 -0.5490 0.5490
vn 0.6302 -0.7764 0.0000
vn -0.6302 -0.7764 0.0000
vn 0.6302 -0.5490 -0.5490
vn -0.6302 -0.5490 -0.5490
vn -0.6302 0.5490 -0.5490
vn -0.6302 0.0000 0.7764
s off
f 14/1/1 10/2/1 2/3/1
f 7/4/2 11/5/2 15/6/2
f 28/7/1 26/8/1 22/9/1
f 23/10/2 27/11/2 31/12/2
f 46/13/1 42/14/1 38/15/1
f 39/16/2 43/17/2 47/18/2
f 62/19/1 58/20/1 54/21/1
f 55/22/2 59/23/2 63/24/2
f 78/25/1 74/26/1 70/27/1
f 71/28/2 75/29/2 79/30/2
f 94/31/1 90/32/1 86/33/1
f 87/34/2 91/35/2 83/36/2
f 108/37/1 106/38/1 102/39/1
f 103/40/2 107/41/2 99/42/2
f 6/43/1 4/44/1 2/3/1
f 2/3/1 16/45/1 14/1/1
f 14/1/1 12/46/1 10/2/1
f 10/2/1 8/47/1 6/43/1
f 6/43/1 2/3/1 10/2/1
f 15/6/2 1/48/2 7/4/2
f 3/49/2 5/50/2 7/4/2
f 7/4/2 9/51/2 11/5/2
f 11/5/2 13/52/2 15/6/2
f 1/48/2 3/49/2 7/4/2
f 22/9/1 20/53/1 18/54/1
f 18/54/1 32/55/1 30/56/1
f 30/56/1 28/7/1 22/9/1
f 26/8/1 24/57/1 22/9/1
f 22/9/1 18/54/1 30/56/1
f 31/12/2 17/58/2 19/59/2
f 19/59/2 21/60/2 23/10/2
f 23/10/2 25/61/2 27/11/2
f 27/11/2 29/62/2 31/12/2
f 31/12/2 19/59/2 23/10/2
f 38/15/1 36/63/1 34/64/1
f 34/64/1 48/65/1 46/13/1
f 46/13/1 44/66/1 42/14/1
f 42/14/1 40/67/1 38/15/1
f 38/15/1 34/64/1 46/13/1
f 47/18/2 33/68/2 35/69/2
f 35/69/2 37/70/2 39/16/2
f 39/16/2 41/71/2 43/17/2
f 43/17/2 45/72/2 47/18/2
f 47/18/2 35/69/2 39/16/2
f 54/21/1 52/73/1 50/74/1
f 50/74/1 64/75/1 62/19/1
f 62/19/1 60/76/1 58/20/1
f 58/20/1 56/77/1 54/21/1
f 54/21/1 50/74/1 62/19/1
f 63/24/2 49/78/2 51/79/2
f 51/79/2 53/80/2 55/22/2
f 55/22/2 57/81/2 59/23/2
f 59/23/2 61/82/2 63/24/2
f 63/24/2 51/79/2 55/22/2
f 70/27/1 68/83/1 66/84/1
f 66/84/1 80/85/1 78/25/1
f 78/25/1 76/86/1 74/26/1
f 74/26/1 72/87/1 70/27/1
f 70/27/1 66/84/1 78/25/1
f 79/30/2 65/88/2 67/89/2
f 67/89/2 69/90/2 71/28/2
f 71/28/2 73/91/2 75/29/2
f 75/29/2 77/92/2 79/30/2
f 79/30/2 67/89/2 71/28/2
f 86/33/1 84/93/1 82/94/1
f 82/94/1 96/95/1 94/31/1
f 94/31/1 92/96/1 90/32/1
f 90/32/1 88/97/1 86/33/1
f 86/33/1 82/94/1 94/31/1
f 95/98/2 81/99/2 83/36/2
f 83/36/2 85/100/2 87/34/2
f 87/34/2 89/101/2 91/35/2
f 91/35/2 93/102/2 95/98/2
f 95/98/2 83/36/2 91/35/2
f 102/39/1 100/103/1 98/104/1
f 98/104/1 112/105/1 110/106/1
f 110/106/1 108/37/1 102/39/1
f 106/38/1 104/107/1 102/39/1
f 102/39/1 98/104/1 110/106/1
f 111/108/2 97/109/2 99/42/2
f 99/42/2 101/110/2 103/40/2
f 103/40/2 105/111/2 107/41/2
f 107/41/2 109/112/2 111/108/2
f 111/108/2 99/42/2 107/41/2
s 1
f 2/113/3 3/114/4 1/115/5
f 3/116/4 6/117/6 5/118/7
f 6/117/6 7/119/8 5/118/7
f 8/120/9 9/121/10 7/119/8
f 9/121/10 12/122/11 11/123/12
f 12/122/11 13/124/13 11/123/12
f 14/125/14 15/126/15 13/124/13
f 16/127/16 1/115/5 15/126/15
f 18/128/3 19/129/4 17/130/5
f 20/131/17 21/132/7 19/133/4
f 22/134/6 23/135/8 21/132/7
f 24/136/9 25/137/10 23/135/8
f 26/138/18 27/139/12 25/137/10
f 27/139/12 30/140/14 29/141/13
f 29/141/13 32/142/16 31/143/15
f 31/143/15 18/128/3 17/130/5
f 34/144/3 35/145/4 33/146/5
f 36/147/17 37/148/7 35/149/4
f 38/150/6 39/151/8 37/148/7
f 40/152/9 41/153/10 39/151/8
f 42/154/18 43/155/12 41/153/10
f 44/156/11 45/157/13 43/155/12
f 46/158/14 47/159/15 45/157/13
f 48/160/16 33/146/5 47/159/15
f 50/161/3 51/162/4 49/163/5
f 52/164/17 53/165/7 51/166/4
f 54/167/6 55/168/8 53/165/7
f 56/169/9 57/170/10 55/168/8
f 58/171/18 59/172/12 57/170/10
f 60/173/11 61/174/13 59/172/12
f 62/175/14 63/176/15 61/174/13
f 64/177/16 49/163/5 63/176/15
f 66/178/3 67/179/4 65/180/5
f 68/181/17 69/182/7 67/183/4
f 70/184/6 71/185/8 69/182/7
f 72/186/9 73/187/10 71/185/8
f 74/188/18 75/189/12 73/187/10
f 76/190/11 77/191/13 75/189/12
f 78/192/14 79/193/15 77/191/13
f 80/194/16 65/180/5 79/193/15
f 82/195/3 83/196/4 81/197/5
f 84/198/17 85/199/7 83/200/4
f 86/201/6 87/202/8 85/199/7
f 88/203/9 89/204/10 87/202/8
f 90/205/18 91/206/12 89/204/10
f 92/207/11 93/208/13 91/206/12
f 94/209/14 95/210/15 93/208/13
f 96/211/16 81/197/5 95/210/15
f 98/212/3 99/213/4 97/214/5
f 100/215/17 101/216/7 99/217/4
f 102/218/6 103/219/8 101/216/7
f 104/220/9 105/221/10 103/219/8
f 105/221/10 108/222/11 107/223/12
f 108/222/11 109/224/13 107/223/12
f 110/225/14 111/226/15 109/224/13
f 112/227/16 97/214/5 111/226/15
f 2/113/3 4/228/17 3/114/4
f 3/116/4 4/229/17 6/117/6
f 6/117/6 8/120/9 7/119/8
f 8/120/9 10/230/18 9/121/10
f 9/121/10 10/230/18 12/122/11
f 12/122/11 14/125/14 13/124/13
f 14/125/14 16/127/16 15/126/15
f 16/127/16 2/113/3 1/115/5
f 18/128/3 20/231/17 19/129/4
f 20/131/17 22/134/6 21/132/7
f 22/134/6 24/136/9 23/135/8
f 24/136/9 26/138/18 25/137/10
f 26/138/18 28/232/11 27/139/12
f 27/139/12 28/232/11 30/140/14
f 29/141/13 30/140/14 32/142/16
f 31/143/15 32/142/16 18/128/3
f 34/144/3 36/233/17 35/145/4
f 36/147/17 38/150/6 37/148/7
f 38/150/6 40/152/9 39/151/8
f 40/152/9 42/154/18 41/153/10
f 42/154/18 44/156/11 43/155/12
f 44/156/11 46/158/14 45/157/13
f 46/158/14 48/160/16 47/159/15
f 48/160/16 34/144/3 33/146/5
f 50/161/3 52/234/17 51/162/4
f 52/164/17 54/167/6 53/165/7
f 54/167/6 56/169/9 55/168/8
f 56/169/9 58/171/18 57/170/10
f 58/171/18 60/173/11 59/172/12
f 60/173/11 62/175/14 61/174/13
f 62/175/14 64/177/16 63/176/15
f 64/177/16 50/161/3 49/163/5
f 66/178/3 68/235/17 67/179/4
f 68/181/17 70/184/6 69/182/7
f 70/184/6 72/186/9 71/185/8
f 72/186/9 74/188/18 73/187/10
f 74/188/18 76/190/11 75/189/12
f 76/190/11 78/192/14 77/191/13
f 78/192/14 80/194/16 79/193/15
f 80/194/16 66/178/3 65/180/5
f 82/195/3 84/236/17 83/196/4
f 84/198/17 86/201/6 85/199/7
f 86/201/6 88/203/9 87/202/8
f 88/203/9 90/205/18 89/204/10
f 90/205/18 92/207/11 91/206/12
f 92/207/11 94/209/14 93/208/13
f 94/209/14 96/211/16 95/210/15
f 96/211/16 82/195/3 81/197/5
f 98/212/3 100/237/17 99/213/4
f 100/215/17 102/218/6 101/216/7
f 102/218/6 104/220/9 103/219/8
f 104/220/9 106/238/18 105/221/10
f 105/221/10 106/238/18 108/222/11
f 108/222/11 110/225/14 109/224/13
f 110/225/14 112/227/16 111/226/15
f 112/227/16 98/212/3 97/214/5
