# Blender v2.78 (sub 0) OBJ File: ''
# www.blender.org
o Cube_Cube.001
v -0.814995 0.000000 1.000000
v -1.000000 0.000000 0.814995
v -0.844957 1.520203 0.750774
v -0.750774 1.545166 0.844957
v -1.000000 0.000000 -0.814995
v -0.814995 0.000000 -1.000000
v -0.750774 1.545166 -0.844957
v -0.844957 1.545166 -0.750774
v 1.000000 0.000000 0.814995
v 0.814995 0.000000 1.000000
v 0.750774 1.557636 0.844957
v 0.844957 1.545166 0.750774
v 0.814995 0.000000 -1.000000
v 1.000000 0.000000 -0.814995
v 0.844957 1.545166 -0.750774
v 0.750774 1.545166 -0.844957
v -0.814995 1.545166 1.000000
v -0.814995 1.545166 -1.000000
v 0.814995 1.545166 -1.000000
v 1.000000 1.545166 -0.814995
v 1.000000 1.545166 0.814995
v 0.814995 1.557636 1.000000
v -0.750774 1.355633 0.844957
v -0.844957 1.355633 0.750774
v -0.844957 1.355633 -0.750774
v -0.750774 1.355633 -0.844957
v 0.750774 1.355633 -0.844957
v 0.844957 1.355633 -0.750774
v 0.844957 1.355633 0.750774
v 0.750774 1.355633 0.844957
v 1.000000 1.566870 0.269142
v 0.844957 1.566870 0.270392
v -0.844957 1.569591 -0.390299
v -1.000000 1.520203 0.814995
v -1.000000 1.545166 -0.814995
v -1.030649 -0.000949 -0.082905
v -1.030649 -0.000949 -0.574183
v -1.000000 1.569591 -0.410178
v -0.937526 -0.000949 -0.574183
v -0.937526 -0.000949 -0.082905
v -1.030649 0.992152 -0.165797
v -1.030649 0.909330 -0.082905
v -1.028211 1.034220 -0.011481
v -1.030649 0.908913 -0.574183
v -1.030649 0.991876 -0.491291
v -1.026445 1.067714 -0.607217
v -0.937526 0.909330 -0.082905
v -0.937526 0.992152 -0.165797
v -0.937526 0.991876 -0.491291
v -0.937526 0.908913 -0.574183
v -1.161615 1.336652 -0.679942
v -1.161615 1.302618 -0.679942
v -1.003053 1.302618 -0.679942
v -1.003053 1.336652 -0.679942
v -1.161615 1.267992 -0.659950
v -1.161615 1.250975 -0.630476
v -1.003053 1.250975 -0.630476
v -1.003053 1.267992 -0.659950
v -1.161615 1.250975 -0.590494
v -1.161615 1.267992 -0.561020
v -1.003053 1.267992 -0.561020
v -1.003053 1.250975 -0.590494
v -1.161615 1.302618 -0.541029
v -1.161615 1.336652 -0.541029
v -1.003053 1.336652 -0.541029
v -1.003053 1.302618 -0.541029
v -1.161615 1.371278 -0.561020
v -1.161615 1.388294 -0.590494
v -1.003053 1.388294 -0.590494
v -1.003053 1.371278 -0.561020
v -1.161615 1.388294 -0.630476
v -1.161615 1.371278 -0.659950
v -1.003053 1.371278 -0.659950
v -1.003053 1.388294 -0.630476
v -1.161615 1.339692 -0.077912
v -1.161615 1.305658 -0.077912
v -1.003052 1.305658 -0.077912
v -1.003052 1.339692 -0.077912
v -1.161615 1.271032 -0.057921
v -1.161615 1.254015 -0.028447
v -1.003052 1.254015 -0.028447
v -1.003052 1.271032 -0.057921
v -1.161615 1.254015 0.011536
v -1.161615 1.271032 0.041010
v -1.003052 1.271032 0.041010
v -1.003052 1.254015 0.011536
v -1.161615 1.305658 0.061001
v -1.161615 1.339692 0.061001
v -1.003052 1.339692 0.061001
v -1.003052 1.305658 0.061001
v -1.161615 1.374318 0.041010
v -1.161615 1.391335 0.011536
v -1.003052 1.391335 0.011536
v -1.003052 1.374318 0.041010
v -1.161615 1.391335 -0.028447
v -1.161615 1.374318 -0.057921
v -1.003052 1.374318 -0.057921
v -1.003052 1.391335 -0.028447
v -1.161615 1.351854 0.505874
v -1.161615 1.317820 0.505874
v -1.003052 1.317820 0.505874
v -1.003052 1.351854 0.505874
v -1.161615 1.283194 0.525865
v -1.161615 1.266177 0.555339
v -1.003052 1.266177 0.555339
v -1.003052 1.283194 0.525865
v -1.161615 1.266177 0.595322
v -1.161615 1.283194 0.624796
v -1.003052 1.283194 0.624796
v -1.003052 1.266177 0.595322
v -1.161615 1.317820 0.644787
v -1.161615 1.351854 0.644787
v -1.003052 1.351854 0.644787
v -1.003052 1.317820 0.644787
v -1.161615 1.386479 0.624796
v -1.161615 1.403496 0.595322
v -1.003052 1.403496 0.595322
v -1.003052 1.386479 0.624796
v -1.161615 1.403496 0.555339
v -1.161615 1.386479 0.525865
v -1.003052 1.386479 0.525865
v -1.003052 1.403496 0.555339
vt 0.0723 0.4445
vt 0.0907 0.1332
vt 0.4020 0.1515
vt 0.8772 0.4969
vt 0.8195 0.4416
vt 0.9152 0.3416
vt 0.8753 0.5001
vt 0.8165 0.4438
vt 0.9140 0.3420
vt 0.8302 0.4842
vt 0.8066 0.4032
vt 0.9470 0.3623
vt 0.4020 0.4445
vt 0.3836 0.4628
vt 0.0907 0.4628
vt 0.0723 0.1515
vt 0.3836 0.1332
vt 0.9539 0.3639
vt 0.9729 0.3969
vt 0.9729 0.4416
vt 0.9539 0.4745
vt 0.9152 0.4969
vt 0.8385 0.4745
vt 0.8195 0.3969
vt 0.8385 0.3639
vt 0.8772 0.3416
vt 0.9534 0.3647
vt 0.9728 0.3983
vt 0.9728 0.4438
vt 0.9534 0.4773
vt 0.9140 0.5001
vt 0.8358 0.4773
vt 0.8165 0.3983
vt 0.8358 0.3647
vt 0.8753 0.3420
vt 0.9706 0.4032
vt 0.9706 0.4433
vt 0.9470 0.4842
vt 0.9122 0.5043
vt 0.8650 0.5043
vt 0.8066 0.4433
vt 0.8302 0.3623
vt 0.8650 0.3422
vt 0.9122 0.3422
vt 0.6645 0.4818
vt 0.1255 0.9927
vt 0.1255 0.4818
vt 0.6067 0.6676
vt 0.5642 0.8990
vt 0.5468 0.5751
vt 0.1408 0.4792
vt 0.6769 0.9874
vt 0.1408 0.9874
vt 0.0400 0.9910
vt 0.1265 0.4909
vt 0.1261 0.9911
vt 0.7505 0.9908
vt 0.6628 0.4827
vt 0.7489 0.4824
vt 0.6549 0.4870
vt 0.7395 0.9865
vt 0.6549 0.9865
vt 0.0434 0.4870
vt 0.1280 0.9865
vt 0.0434 0.9905
vt 0.3045 0.9935
vt 0.1280 0.4870
vt 0.1801 0.9511
vt 0.1166 0.9432
vt 0.1558 0.9268
vt 0.5845 0.9277
vt 0.5768 0.9908
vt 0.5606 0.9515
vt 0.5611 0.5236
vt 0.6242 0.5313
vt 0.5849 0.5475
vt 0.1564 0.5468
vt 0.1640 0.4835
vt 0.1803 0.5227
vt 0.4742 0.9907
vt 0.4692 0.9515
vt 0.1171 0.5305
vt 0.3025 0.4839
vt 0.3021 0.5233
vt 0.6237 0.9440
vt 0.5760 0.9622
vt 0.6067 0.9253
vt 0.1422 0.5253
vt 0.2043 0.5345
vt 0.1834 0.5561
vt 0.1813 0.9747
vt 0.5430 0.9183
vt 0.1773 0.4835
vt 0.5285 0.5512
vt 0.5964 0.5429
vt 0.5622 0.5050
vt 0.1364 0.9371
vt 0.2133 0.9212
vt 0.1289 0.8371
vt 0.1912 0.8974
vt 0.5774 0.4844
vt 0.1637 0.9904
vt 0.5811 0.8775
vt 0.2479 0.9728
vt 0.2479 0.8775
vt 0.7717 0.4218
vt 0.5438 0.4216
vt 0.7717 -0.0004
vt 0.4027 0.9883
vt 0.3511 0.4834
vt 0.4027 0.4834
vt 0.3455 0.8010
vt 0.3952 0.8146
vt 0.2669 0.9872
vt 0.4045 0.4834
vt 0.4561 0.9881
vt 0.4045 0.9881
vt 0.2035 0.8254
vt 0.1365 0.9793
vt 0.1350 0.4820
vt 0.3722 0.7744
vt 0.2140 0.7743
vt 0.2407 0.8010
vt 0.7011 0.9728
vt 0.7011 0.8775
vt 0.1280 0.8775
vt 0.1280 0.9728
vt 0.6616 0.4820
vt 0.9350 0.0823
vt 0.8509 0.1035
vt 0.8509 0.0823
vt 0.9350 0.2001
vt 0.8509 0.2213
vt 0.8509 0.2001
vt 0.9350 0.2393
vt 0.8509 0.2605
vt 0.8509 0.2393
vt 0.9350 0.0430
vt 0.8509 0.0642
vt 0.8509 0.0430
vt 0.9350 0.1608
vt 0.8509 0.1820
vt 0.8509 0.1608
vt 0.9350 0.1215
vt 0.8509 0.1427
vt 0.8509 0.1215
vt 0.9350 0.1427
vt 0.9350 0.1820
vt 0.9350 0.2213
vt 0.8509 0.2786
vt 0.9350 0.2605
vt 0.9350 0.2786
vt 0.9350 0.0642
vt 0.9397 0.0965
vt 0.8523 0.1185
vt 0.8523 0.0965
vt 0.9397 0.2189
vt 0.8523 0.2409
vt 0.8523 0.2189
vt 0.9397 0.2597
vt 0.8523 0.2817
vt 0.8523 0.2597
vt 0.9397 0.0557
vt 0.8523 0.0777
vt 0.8523 0.0557
vt 0.9397 0.1781
vt 0.8523 0.2001
vt 0.8523 0.1781
vt 0.8523 0.1373
vt 0.9397 0.1593
vt 0.8523 0.1593
vt 0.9397 0.1373
vt 0.9397 0.2001
vt 0.9397 0.2409
vt 0.9397 0.0369
vt 0.9397 0.0777
vt 0.9391 0.1385
vt 0.8526 0.1603
vt 0.8526 0.1385
vt 0.9391 0.2596
vt 0.8526 0.2814
vt 0.8526 0.2596
vt 0.9391 0.0577
vt 0.8526 0.0795
vt 0.8526 0.0577
vt 0.9391 0.0981
vt 0.8526 0.1199
vt 0.8526 0.0981
vt 0.9391 0.2192
vt 0.8526 0.2410
vt 0.8526 0.2192
vt 0.9391 0.1789
vt 0.8526 0.2007
vt 0.8526 0.1789
vt 0.9391 0.2007
vt 0.9391 0.2410
vt 0.9391 0.0392
vt 0.9391 0.0795
vt 0.9391 0.1199
vt 0.6645 0.9969
vt 0.6769 0.4792
vt 0.0404 0.4826
vt 0.6644 0.9911
vt 0.7395 0.4870
vt 0.5811 0.9728
vt 0.5438 -0.0004
vt 0.7333 0.4602
vt 0.5823 0.4601
vt 0.3511 0.9883
vt 0.6612 0.9712
vt 0.4561 0.4834
vt 0.2131 0.4814
vt 0.3724 0.4814
vt 0.9350 0.1035
vt 0.9397 0.1185
vt 0.9397 0.2817
vt 0.8523 0.0369
vt 0.9391 0.1603
vt 0.9391 0.2814
vt 0.8526 0.0392
vn 0.0000 1.0000 0.0000
vn -1.0000 0.0000 0.0000
vn 0.3827 0.0000 0.9239
vn -0.3229 0.6457 0.6919
vn -0.3827 0.0000 0.9239
vn -0.6997 0.7144 0.0086
vn -0.7173 0.6302 0.2971
vn -0.7173 0.6302 -0.2971
vn -0.2971 0.6302 -0.7173
vn 0.3827 0.0000 -0.9239
vn -0.3827 0.0000 -0.9239
vn -0.7288 0.6166 0.2977
vn -0.9173 0.0000 0.3983
vn -0.7061 0.6304 -0.3224
vn 0.9239 0.0000 -0.3827
vn 0.2971 0.6302 -0.7173
vn 0.7173 0.6278 -0.3023
vn 0.7298 0.6162 0.2959
vn 0.3038 0.6369 0.7086
vn 0.6998 0.7143 0.0081
vn 0.9239 0.0000 0.3827
vn 0.5493 0.7906 -0.2705
vn 0.1268 0.8129 -0.5683
vn 0.2275 0.8042 0.5491
vn 0.5679 0.7980 0.2013
vn -0.5553 0.8023 0.2189
vn -0.2275 0.8042 0.5491
vn -0.2006 0.8081 -0.5538
vn -0.5546 0.7909 -0.2586
vn -0.6751 0.7376 -0.0115
vn 0.6952 0.7188 -0.0055
vn 0.7173 0.6302 -0.2971
vn -0.2971 0.6302 0.7173
vn 0.2971 0.6302 0.7173
vn 0.7173 0.6302 0.2971
vn -0.8199 -0.5259 0.2260
vn -0.6302 -0.7175 -0.2966
vn -0.8195 -0.5255 -0.2285
vn -0.6302 -0.2973 -0.7172
vn -0.6303 -0.2969 0.7173
vn -0.7071 0.0000 -0.7071
vn -0.8142 -0.2271 -0.5342
vn -0.7188 0.0000 -0.6952
vn -0.9995 0.0262 0.0166
vn -0.7495 0.0000 0.6620
vn -0.8385 -0.2340 0.4921
vn -0.9977 0.0245 -0.0627
vn -0.8980 0.0000 -0.4400
vn 0.0000 0.7071 -0.7071
vn -0.6532 0.1960 -0.7313
vn -0.6532 0.5354 -0.5354
vn 0.0000 -0.7071 0.7071
vn -0.6532 -0.1960 0.7313
vn -0.6532 -0.5354 0.5354
vn 0.0000 0.2588 0.9659
vn -0.6532 0.5354 0.5354
vn -0.6532 0.1960 0.7313
vn 0.0000 0.9659 0.2588
vn -0.6532 0.7313 -0.1960
vn -0.6532 0.7313 0.1960
vn 0.0000 -0.9659 -0.2588
vn -0.6532 -0.7313 0.1960
vn -0.6532 -0.7313 -0.1960
vn 0.0000 -0.2588 -0.9659
vn -0.6532 -0.5354 -0.5354
vn -0.6532 -0.1960 -0.7313
vn 0.0000 -0.7071 -0.7071
vn 0.0000 -0.9659 0.2588
vn 0.0000 -0.2588 0.9659
vn 0.0000 0.7071 0.7071
vn 0.0000 0.9659 -0.2588
vn -0.6303 -0.7171 0.2975
vn -0.7071 0.0000 0.7071
vn 0.0000 0.2588 -0.9659
s off
f 25/1/1 23/2/1 29/3/1
f 60/4/2 64/5/2 72/6/2
f 84/7/2 88/8/2 96/9/2
f 108/10/2 112/11/2 120/12/2
f 29/3/1 28/13/1 27/14/1
f 27/14/1 26/15/1 25/1/1
f 25/1/1 24/16/1 23/2/1
f 23/2/1 30/17/1 29/3/1
f 29/3/1 27/14/1 25/1/1
f 72/6/2 51/18/2 52/19/2
f 52/19/2 55/20/2 72/6/2
f 56/21/2 59/22/2 60/4/2
f 60/4/2 63/23/2 64/5/2
f 64/5/2 67/24/2 68/25/2
f 68/25/2 71/26/2 72/6/2
f 72/6/2 55/20/2 56/21/2
f 56/21/2 60/4/2 72/6/2
f 64/5/2 68/25/2 72/6/2
f 96/9/2 75/27/2 76/28/2
f 76/28/2 79/29/2 96/9/2
f 80/30/2 83/31/2 84/7/2
f 84/7/2 87/32/2 88/8/2
f 88/8/2 91/33/2 92/34/2
f 92/34/2 95/35/2 96/9/2
f 96/9/2 79/29/2 80/30/2
f 80/30/2 84/7/2 96/9/2
f 88/8/2 92/34/2 96/9/2
f 120/12/2 99/36/2 100/37/2
f 100/37/2 103/38/2 120/12/2
f 104/39/2 107/40/2 108/10/2
f 108/10/2 111/41/2 112/11/2
f 112/11/2 115/42/2 116/43/2
f 116/43/2 119/44/2 120/12/2
f 120/12/2 103/38/2 104/39/2
f 104/39/2 108/10/2 120/12/2
f 112/11/2 116/43/2 120/12/2
s 1
f 10/45/3 17/46/4 1/47/5
f 32/48/6 28/49/7 29/50/8
f 18/51/9 13/52/10 6/53/11
f 1/54/5 34/55/12 2/56/13
f 6/57/11 35/58/14 18/59/9
f 14/60/15 19/61/16 20/62/17
f 10/63/3 21/64/18 22/65/19
f 31/66/20 21/64/18 9/67/21
f 3/68/22 17/69/4 4/70/23
f 7/71/24 35/72/14 8/73/25
f 15/74/26 19/75/16 16/76/27
f 11/77/28 21/78/18 12/79/29
f 8/73/25 38/80/30 33/81/31
f 4/70/23 22/82/19 11/77/28
f 12/79/29 31/83/20 32/84/6
f 16/76/27 18/85/9 7/71/24
f 16/86/27 28/49/7 15/87/26
f 3/88/22 23/89/16 24/90/32
f 7/91/24 27/92/33 16/86/27
f 4/93/23 30/94/9 23/89/16
f 12/95/29 30/94/9 11/96/28
f 8/97/25 26/98/34 7/91/24
f 33/99/31 24/90/32 25/100/35
f 15/74/26 31/83/20 20/101/17
f 3/68/22 38/80/30 34/102/12
f 45/103/36 48/104/37 41/105/38
f 47/106/39 50/107/40 40/108/41
f 42/109/42 40/110/41 36/111/43
f 41/112/38 43/113/44 38/114/30
f 37/115/45 50/116/40 44/117/46
f 46/118/47 35/119/14 5/120/48
f 41/112/38 42/121/42 43/113/44
f 44/122/46 45/123/36 46/118/47
f 50/124/40 45/103/36 44/125/46
f 42/126/42 48/104/37 47/127/39
f 42/121/42 2/128/13 43/113/44
f 73/129/49 51/130/50 72/131/51
f 61/132/52 63/133/53 60/134/54
f 65/135/55 67/136/56 64/137/57
f 69/138/58 71/139/59 68/140/60
f 57/141/61 59/142/62 56/143/63
f 53/144/64 55/145/65 52/146/66
f 51/130/50 53/144/64 52/146/66
f 56/143/63 58/147/67 57/141/61
f 60/134/54 62/148/68 61/132/52
f 64/137/57 66/149/69 65/135/55
f 68/150/60 70/151/70 69/152/58
f 73/129/49 71/139/59 74/153/71
f 97/154/49 75/155/50 96/156/51
f 85/157/52 87/158/53 84/159/54
f 89/160/55 91/161/56 88/162/57
f 93/163/58 95/164/59 92/165/60
f 81/166/61 83/167/62 80/168/63
f 76/169/66 82/170/67 79/171/65
f 75/155/50 77/172/64 76/169/66
f 80/168/63 82/170/67 81/166/61
f 84/159/54 86/173/68 85/157/52
f 88/162/57 90/174/69 89/160/55
f 92/165/60 94/175/70 93/163/58
f 96/156/51 98/176/71 97/154/49
f 121/177/49 99/178/50 120/179/51
f 109/180/52 111/181/53 108/182/54
f 113/183/55 115/184/56 112/185/57
f 117/186/58 119/187/59 116/188/60
f 105/189/61 107/190/62 104/191/63
f 101/192/64 103/193/65 100/194/66
f 99/178/50 101/192/64 100/194/66
f 104/191/63 106/195/67 105/189/61
f 108/182/54 110/196/68 109/180/52
f 112/185/57 114/197/69 113/183/55
f 116/188/60 118/198/70 117/186/58
f 120/179/51 122/199/71 121/177/49
f 10/45/3 22/200/19 17/46/4
f 29/50/8 12/95/29 32/48/6
f 32/48/6 15/87/26 28/49/7
f 18/51/9 19/201/16 13/52/10
f 1/54/5 17/202/4 34/55/12
f 6/57/11 5/203/48 35/58/14
f 14/60/15 13/204/10 19/61/16
f 10/63/3 9/67/21 21/64/18
f 9/67/21 14/60/15 31/66/20
f 20/62/17 31/66/20 14/60/15
f 3/68/22 34/102/12 17/69/4
f 7/71/24 18/85/9 35/72/14
f 15/74/26 20/101/17 19/75/16
f 11/77/28 22/82/19 21/78/18
f 8/73/25 35/72/14 38/80/30
f 4/70/23 17/69/4 22/82/19
f 12/79/29 21/78/18 31/83/20
f 16/76/27 19/75/16 18/85/9
f 16/86/27 27/92/33 28/49/7
f 3/88/22 4/93/23 23/89/16
f 7/91/24 26/98/34 27/92/33
f 4/93/23 11/96/28 30/94/9
f 12/95/29 29/50/8 30/94/9
f 8/97/25 25/100/35 26/98/34
f 25/100/35 8/97/25 33/99/31
f 33/99/31 3/88/22 24/90/32
f 15/74/26 32/84/6 31/83/20
f 3/68/22 33/81/31 38/80/30
f 45/103/36 49/205/72 48/104/37
f 39/206/73 40/108/41 50/107/40
f 47/106/39 48/207/37 49/208/72
f 49/208/72 50/107/40 47/106/39
f 42/109/42 47/209/39 40/110/41
f 35/119/14 46/118/47 38/114/30
f 45/123/36 41/112/38 38/114/30
f 43/113/44 34/210/12 38/114/30
f 38/114/30 46/118/47 45/123/36
f 37/115/45 39/211/73 50/116/40
f 5/120/48 37/212/45 44/122/46
f 44/122/46 46/118/47 5/120/48
f 50/124/40 49/205/72 45/103/36
f 42/126/42 41/105/38 48/104/37
f 34/210/12 43/113/44 2/128/13
f 42/121/42 36/213/43 2/128/13
f 73/129/49 54/214/74 51/130/50
f 61/132/52 66/149/69 63/133/53
f 65/135/55 70/151/70 67/136/56
f 69/138/58 74/153/71 71/139/59
f 57/141/61 62/148/68 59/142/62
f 53/144/64 58/147/67 55/145/65
f 51/130/50 54/214/74 53/144/64
f 56/143/63 55/145/65 58/147/67
f 60/134/54 59/142/62 62/148/68
f 64/137/57 63/133/53 66/149/69
f 68/150/60 67/136/56 70/151/70
f 73/129/49 72/131/51 71/139/59
f 97/154/49 78/215/74 75/155/50
f 85/157/52 90/174/69 87/158/53
f 89/160/55 94/216/70 91/161/56
f 93/163/58 98/176/71 95/164/59
f 81/166/61 86/173/68 83/167/62
f 76/169/66 77/172/64 82/170/67
f 75/155/50 78/215/74 77/172/64
f 80/168/63 79/171/65 82/170/67
f 84/159/54 83/167/62 86/173/68
f 88/162/57 87/158/53 90/174/69
f 92/165/60 91/217/56 94/175/70
f 96/156/51 95/164/59 98/176/71
f 121/177/49 102/218/74 99/178/50
f 109/180/52 114/219/69 111/181/53
f 113/183/55 118/198/70 115/184/56
f 117/186/58 122/199/71 119/187/59
f 105/189/61 110/196/68 107/190/62
f 101/192/64 106/195/67 103/193/65
f 99/178/50 102/218/74 101/192/64
f 104/191/63 103/193/65 106/195/67
f 108/182/54 107/190/62 110/196/68
f 112/185/57 111/220/53 114/197/69
f 116/188/60 115/184/56 118/198/70
f 120/179/51 119/187/59 122/199/71
