# Blender v2.78 (sub 0) OBJ File: ''
# www.blender.org
o Circle.001
v 1.026785 1.790079 0.191647
v 0.997128 1.966527 0.105483
v 0.989803 2.010107 -0.088128
v 1.010327 1.888001 -0.243392
v 1.043244 1.692158 -0.243392
v 1.063768 1.570052 -0.088128
v 1.056443 1.613631 0.105482
v 0.674376 1.770822 0.191647
v 0.674376 1.949745 0.105483
v 0.674376 1.993935 -0.088128
v 0.674376 1.870117 -0.243392
v 0.674376 1.671527 -0.243392
v 0.674376 1.547708 -0.088128
v 0.674376 1.591899 0.105483
v 1.415143 1.918462 0.154106
v 1.338719 2.047036 0.082076
v 1.319844 2.078791 -0.079774
v 1.372731 1.989815 -0.209568
v 1.457555 1.847109 -0.209568
v 1.510442 1.758134 -0.079774
v 1.491567 1.789889 0.082076
v 1.739310 2.197695 0.124624
v 1.640567 2.276800 0.063694
v 1.616180 2.296338 -0.073214
v 1.684512 2.241595 -0.183005
v 1.794108 2.153794 -0.183005
v 1.862440 2.099051 -0.073214
v 1.838052 2.118589 0.063694
v 1.963980 2.630986 -0.037204
v -0.957344 1.848515 -0.221972
v -0.927686 2.024963 -0.135807
v -0.920361 2.068542 0.057804
v -0.940885 1.946437 0.213067
v -0.973803 1.750594 0.213067
v -0.994327 1.628488 0.057804
v -0.987002 1.672067 -0.135807
v -0.604935 1.829258 -0.221972
v -0.604935 2.008181 -0.135807
v -0.604935 2.052372 0.057804
v -0.604935 1.928553 0.213067
v -0.604935 1.729963 0.213067
v -0.604935 1.606145 0.057804
v -0.604935 1.650335 -0.135807
v -1.345702 1.976898 -0.184430
v -1.269278 2.105472 -0.112400
v -1.250403 2.137226 0.049450
v -1.303290 2.048251 0.179244
v -1.388114 1.905545 0.179244
v -1.441001 1.816569 0.049450
v -1.422126 1.848325 -0.112400
v -1.669868 2.256130 -0.154948
v -1.571126 2.335236 -0.094018
v -1.546739 2.354774 0.042890
v -1.615070 2.300031 0.152681
v -1.724666 2.212230 0.152681
v -1.792998 2.157487 0.042890
v -1.768611 2.177025 -0.094018
v -1.894538 2.689422 0.006880
v -0.001338 2.297293 -0.334806
v -0.001338 2.103744 -0.624472
v -0.001338 1.814077 -0.818021
v -0.001338 1.489111 -0.885987
v 0.129419 2.297293 -0.308796
v 0.240270 2.103744 -0.576413
v 0.314338 1.814077 -0.755229
v 0.340347 1.489111 -0.818021
v -0.001338 2.365258 0.006879
v 0.240270 2.297292 -0.234729
v 0.445095 2.103744 -0.439554
v 0.581955 1.814077 -0.576413
v 0.630014 1.489111 -0.624472
v 0.314338 2.297293 -0.123878
v 0.581955 2.103744 -0.234729
v 0.760771 1.814077 -0.308796
v 0.823563 1.489111 -0.334806
v 0.340347 2.297293 0.006879
v 0.630013 2.103744 0.006879
v 0.823563 1.814077 0.006879
v 0.891528 1.489111 0.006879
v 0.314338 2.297293 0.137636
v 0.581955 2.103744 0.248487
v 0.760771 1.814077 0.322555
v 0.823563 1.489111 0.348564
v 0.240270 2.297293 0.248487
v 0.445095 2.103744 0.453312
v 0.581955 1.814077 0.590172
v 0.630013 1.489111 0.638231
v 0.129419 2.297293 0.322555
v 0.240270 2.103744 0.590172
v 0.314338 1.814077 0.768988
v 0.340347 1.489111 0.831779
v -0.001338 2.297292 0.348564
v -0.001338 2.103744 0.638230
v -0.001338 1.814077 0.831779
v -0.001338 1.489111 0.899745
v -0.132095 2.297292 0.322555
v -0.242946 2.103744 0.590172
v -0.317014 1.814077 0.768988
v -0.343023 1.489111 0.831779
v -0.242946 2.297292 0.248487
v -0.447771 2.103744 0.453312
v -0.584631 1.814077 0.590171
v -0.632690 1.489111 0.638230
v -0.317014 2.297293 0.137636
v -0.584631 2.103744 0.248487
v -0.763447 1.814077 0.322554
v -0.826238 1.489111 0.348564
v -0.343023 2.297293 0.006879
v -0.632689 2.103744 0.006879
v -0.826238 1.814077 0.006879
v -0.894204 1.489111 0.006879
v -0.317014 2.297293 -0.123878
v -0.584630 2.103744 -0.234729
v -0.763446 1.814077 -0.308797
v -0.826238 1.489111 -0.334806
v -0.242946 2.297292 -0.234729
v -0.447770 2.103744 -0.439554
v -0.584630 1.814077 -0.576414
v -0.632689 1.489111 -0.624472
v -0.132095 2.297292 -0.308796
v -0.242945 2.103744 -0.576413
v -0.317013 1.814077 -0.755229
v -0.343022 1.489111 -0.818021
vt 0.6511 0.0776
vt 0.6953 -0.0027
vt 0.6892 0.0789
vt 0.7593 -0.0031
vt 0.7990 0.0814
vt 0.7574 0.0827
vt 0.5287 0.0766
vt 0.5713 -0.0010
vt 0.5700 0.0777
vt 0.6112 0.0782
vt 0.6528 -0.0046
vt 0.7121 -0.0018
vt 0.7061 0.0798
vt 0.8033 -0.0036
vt 0.8506 0.0805
vt 0.6116 -0.0032
vt 0.6467 0.1754
vt 0.7939 0.1880
vt 0.5290 0.1805
vt 0.6076 0.1770
vt 0.7508 0.1896
vt 0.8369 0.1893
vt 0.5664 0.1784
vt 0.6077 0.2386
vt 0.7517 0.2541
vt 0.7087 0.1902
vt 0.8320 0.2527
vt 0.5708 0.2408
vt 0.6902 0.1744
vt 0.6408 0.2407
vt 0.7924 0.2529
vt 0.5309 0.2427
vt 0.6846 0.2412
vt 0.6061 0.3335
vt 0.7731 0.3374
vt 0.7095 0.2499
vt 0.6501 0.0804
vt 0.6943 0.0001
vt 0.6882 0.0817
vt 0.7584 -0.0027
vt 0.7991 0.0809
vt 0.7568 0.0819
vt 0.5277 0.0793
vt 0.5703 0.0017
vt 0.5690 0.0804
vt 0.6102 0.0809
vt 0.6519 -0.0019
vt 0.7116 -0.0017
vt 0.7066 0.0817
vt 0.8032 -0.0032
vt 0.8503 0.0829
vt 0.6107 -0.0005
vt 0.6456 0.1782
vt 0.7933 0.1890
vt 0.5278 0.1831
vt 0.6064 0.1797
vt 0.7513 0.1900
vt 0.8370 0.1901
vt 0.5653 0.1811
vt 0.6077 0.2415
vt 0.7527 0.2551
vt 0.7092 0.1907
vt 0.8312 0.2529
vt 0.5709 0.2437
vt 0.6891 0.1771
vt 0.6408 0.2437
vt 0.7911 0.2539
vt 0.5310 0.2455
vt 0.6846 0.2442
vt 0.6060 0.3364
vt 0.7730 0.3379
vt 0.7105 0.2510
vt 0.3084 0.6772
vt 0.2601 0.5946
vt 0.3284 0.6128
vt 0.2356 0.8024
vt 0.2320 0.7239
vt 0.2778 0.7426
vt 0.2475 0.6590
vt 0.1858 0.8550
vt 0.2117 0.7890
vt 0.1864 0.6526
vt 0.1857 0.7847
vt 0.1880 0.5861
vt 0.1856 0.7180
vt 0.1245 0.6588
vt 0.1597 0.7892
vt 0.1137 0.5909
vt 0.1392 0.7246
vt 0.0396 0.6088
vt 0.0936 0.7442
vt 0.0608 0.6781
vt 0.1363 0.8024
vt 0.2322 0.8029
vt 0.2271 0.7245
vt 0.2732 0.7423
vt 0.2413 0.6593
vt 0.3025 0.6763
vt 0.1835 0.8565
vt 0.2080 0.7900
vt 0.2526 0.5946
vt 0.3212 0.6116
vt 0.1801 0.6541
vt 0.1819 0.7862
vt 0.1804 0.5875
vt 0.1806 0.7196
vt 0.1561 0.7912
vt 0.1062 0.5938
vt 0.1343 0.7270
vt 0.1183 0.6615
vt 0.0550 0.6821
vt 0.0325 0.6132
vt 0.1329 0.8049
vt 0.0891 0.7475
vt 0.3140 0.6836
vt 0.2356 0.7269
vt 0.2539 0.6628
vt 0.2358 0.8055
vt 0.1837 0.8559
vt 0.2124 0.7912
vt 0.2694 0.5990
vt 0.3368 0.6203
vt 0.2805 0.7476
vt 0.1932 0.6537
vt 0.1867 0.7856
vt 0.1978 0.5873
vt 0.1896 0.7191
vt 0.1233 0.5889
vt 0.1606 0.7890
vt 0.1429 0.7235
vt 0.1311 0.6572
vt 0.0485 0.6035
vt 0.1365 0.8012
vt 0.0965 0.7412
vt 0.0666 0.6737
vt 0.2792 0.7433
vt 0.2535 0.6582
vt 0.3133 0.6796
vt 0.2340 0.8007
vt 0.1814 0.8507
vt 0.2108 0.7861
vt 0.3367 0.6164
vt 0.2695 0.5945
vt 0.2346 0.7222
vt 0.1928 0.6486
vt 0.1850 0.7804
vt 0.1980 0.5822
vt 0.1886 0.7139
vt 0.1307 0.6514
vt 0.1235 0.5830
vt 0.1418 0.7179
vt 0.1589 0.7835
vt 0.0952 0.7351
vt 0.0660 0.6674
vt 0.1348 0.7955
vt 0.0486 0.5969
vt 0.2263 0.6379
vt 0.2906 0.9613
vt 0.1566 0.9879
vt 0.5303 -0.0005
vt 0.8510 -0.0023
vt 0.5294 0.0021
vt 0.8531 -0.0027
vt 0.0923 0.9613
vt 0.0431 0.9120
vt 0.0164 0.8477
vt 0.0164 0.7781
vt 0.0431 0.7138
vt 0.0923 0.6645
vt 0.1566 0.6379
vt 0.2906 0.6645
vt 0.3398 0.7138
vt 0.3664 0.7781
vt 0.3664 0.8477
vt 0.3398 0.9120
vt 0.2262 0.9879
vn 0.1886 -0.7723 0.6066
vn 0.0553 -0.9742 -0.2186
vn 0.2209 -0.9512 -0.2152
vn 0.0249 -0.4461 -0.8946
vn -0.0227 0.4072 -0.9130
vn 0.1296 -0.4443 -0.8864
vn -0.1211 0.9655 -0.2305
vn -0.0401 0.7756 0.6299
vn -0.0858 0.7633 0.6403
vn 0.0543 -0.0247 0.9982
vn 0.0444 -0.7872 0.6151
vn -0.0219 0.4221 -0.9063
vn 0.0012 -0.0147 0.9999
vn 0.4544 -0.6602 0.5980
vn -0.1149 0.3784 -0.9185
vn -0.3886 0.8908 -0.2354
vn 0.0946 -0.0075 0.9955
vn 0.2968 -0.3758 -0.8778
vn -0.2889 0.7031 0.6497
vn 0.1555 0.1151 0.9811
vn 0.4751 -0.1503 -0.8670
vn 0.5404 -0.8143 -0.2117
vn -0.6176 0.7520 -0.2301
vn -0.4571 0.6205 0.6372
vn 0.7231 -0.3566 0.5915
vn -0.1779 0.3907 -0.9031
vn 0.8579 -0.4691 -0.2096
vn 0.4753 0.8798 0.0000
vn -0.1886 -0.7723 -0.6066
vn -0.0553 -0.9742 0.2186
vn -0.2209 -0.9512 0.2152
vn -0.0249 -0.4461 0.8946
vn 0.0227 0.4072 0.9130
vn -0.1296 -0.4443 0.8864
vn 0.1211 0.9655 0.2305
vn 0.0401 0.7756 -0.6299
vn 0.0858 0.7633 -0.6403
vn -0.0543 -0.0247 -0.9982
vn -0.0444 -0.7872 -0.6151
vn 0.0219 0.4221 0.9063
vn -0.0012 -0.0147 -0.9999
vn -0.4544 -0.6602 -0.5980
vn 0.1149 0.3784 0.9185
vn 0.3886 0.8908 0.2354
vn -0.0946 -0.0075 -0.9955
vn -0.2968 -0.3758 0.8778
vn 0.2889 0.7031 -0.6497
vn -0.1555 0.1151 -0.9811
vn -0.4751 -0.1503 0.8670
vn -0.5404 -0.8143 0.2117
vn 0.6176 0.7520 0.2301
vn 0.4571 0.6205 -0.6372
vn -0.7231 -0.3566 -0.5915
vn 0.1779 0.3907 0.9031
vn -0.8579 -0.4691 0.2096
vn -0.4753 0.8798 0.0000
vn 0.0000 0.3790 -0.9254
vn 0.3098 -0.5871 -0.7479
vn 0.0000 -0.5871 -0.8095
vn 0.0000 0.9152 -0.4031
vn 0.2751 0.6952 -0.6641
vn 0.0000 0.6952 -0.7188
vn 0.3541 0.3790 -0.8549
vn 0.0000 1.0000 0.0000
vn 0.1542 0.9152 -0.3724
vn 0.6543 0.3790 -0.6543
vn 0.2850 0.9152 -0.2850
vn 0.5724 -0.5871 -0.5724
vn 0.5083 0.6952 -0.5083
vn 0.8549 0.3790 -0.3541
vn 0.3724 0.9152 -0.1542
vn 0.7479 -0.5871 -0.3098
vn 0.6641 0.6952 -0.2751
vn 0.8095 -0.5871 0.0000
vn 0.7188 0.6952 0.0000
vn 0.9254 0.3790 0.0000
vn 0.4031 0.9152 0.0000
vn 0.6641 0.6952 0.2751
vn 0.8549 0.3790 0.3541
vn 0.3724 0.9152 0.1542
vn 0.7479 -0.5871 0.3098
vn 0.6543 0.3790 0.6543
vn 0.2850 0.9152 0.2850
vn 0.5724 -0.5871 0.5724
vn 0.5083 0.6952 0.5083
vn 0.1542 0.9152 0.3724
vn 0.3098 -0.5871 0.7479
vn 0.2751 0.6952 0.6641
vn 0.3541 0.3790 0.8549
vn 0.0000 0.3790 0.9254
vn 0.0000 -0.5871 0.8095
vn 0.0000 0.9152 0.4031
vn 0.0000 0.6952 0.7188
vn -0.2751 0.6952 0.6641
vn -0.3541 0.3790 0.8549
vn -0.1542 0.9152 0.3724
vn -0.3098 -0.5871 0.7479
vn -0.6543 0.3790 0.6543
vn -0.2850 0.9152 0.2850
vn -0.5724 -0.5871 0.5724
vn -0.5083 0.6952 0.5083
vn -0.7479 -0.5871 0.3098
vn -0.3724 0.9152 0.1542
vn -0.6641 0.6952 0.2751
vn -0.8549 0.3790 0.3541
vn -0.8095 -0.5871 0.0000
vn -0.4031 0.9152 0.0000
vn -0.7188 0.6952 0.0000
vn -0.9254 0.3790 0.0000
vn -0.8549 0.3790 -0.3541
vn -0.3724 0.9152 -0.1542
vn -0.7479 -0.5871 -0.3098
vn -0.6641 0.6952 -0.2751
vn -0.6543 0.3790 -0.6543
vn -0.2850 0.9152 -0.2850
vn -0.5724 -0.5871 -0.5724
vn -0.5083 0.6952 -0.5083
vn -0.3541 0.3790 -0.8549
vn -0.3098 -0.5871 -0.7479
vn -0.2751 0.6952 -0.6641
vn -0.1542 0.9152 -0.3724
vn -0.0499 0.9730 -0.2253
vn 0.0499 0.9730 0.2253
s 1
f 7/1/1 13/2/2 6/3/3
f 12/4/4 4/5/5 5/6/6
f 3/7/7 9/8/8 2/9/9
f 1/10/10 14/11/11 7/1/1
f 13/12/2 5/6/6 6/13/3
f 11/14/12 3/15/7 4/5/5
f 2/9/9 8/16/13 1/10/10
f 6/3/3 21/17/14 7/1/1
f 18/18/15 5/6/6 4/5/5
f 2/9/9 17/19/16 3/7/7
f 7/1/1 15/20/17 1/10/10
f 19/21/18 6/13/3 5/6/6
f 17/22/16 4/5/5 3/15/7
f 1/10/10 16/23/19 2/9/9
f 21/17/14 22/24/20 15/20/17
f 26/25/21 20/26/22 19/21/18
f 24/27/23 18/18/15 17/22/16
f 15/20/17 23/28/24 16/23/19
f 20/29/22 28/30/25 21/17/14
f 25/31/26 19/21/18 18/18/15
f 16/23/19 24/32/23 17/19/16
f 27/33/27 29/34/28 28/30/25
f 25/31/26 29/35/28 26/25/21
f 23/28/24 29/34/28 24/32/23
f 28/30/25 29/34/28 22/24/20
f 26/25/21 29/35/28 27/36/27
f 24/27/23 29/35/28 25/31/26
f 22/24/20 29/34/28 23/28/24
f 36/37/29 42/38/30 35/39/31
f 41/40/32 33/41/33 34/42/34
f 32/43/35 38/44/36 31/45/37
f 30/46/38 43/47/39 36/37/29
f 42/48/30 34/42/34 35/49/31
f 40/50/40 32/51/35 33/41/33
f 31/45/37 37/52/41 30/46/38
f 35/39/31 50/53/42 36/37/29
f 47/54/43 34/42/34 33/41/33
f 31/45/37 46/55/44 32/43/35
f 36/37/29 44/56/45 30/46/38
f 48/57/46 35/49/31 34/42/34
f 46/58/44 33/41/33 32/51/35
f 30/46/38 45/59/47 31/45/37
f 50/53/42 51/60/48 44/56/45
f 55/61/49 49/62/50 48/57/46
f 53/63/51 47/54/43 46/58/44
f 44/56/45 52/64/52 45/59/47
f 49/65/50 57/66/53 50/53/42
f 54/67/54 48/57/46 47/54/43
f 45/59/47 53/68/51 46/55/44
f 56/69/55 58/70/56 57/66/53
f 54/67/54 58/71/56 55/61/49
f 52/64/52 58/70/56 53/68/51
f 57/66/53 58/70/56 51/60/48
f 55/61/49 58/71/56 56/72/55
f 53/63/51 58/71/56 54/67/54
f 51/60/48 58/70/56 52/64/52
f 61/73/57 66/74/58 62/75/59
f 59/76/60 64/77/61 60/78/62
f 61/73/57 64/77/61 65/79/63
f 59/76/60 67/80/64 63/81/65
f 64/77/61 70/82/66 65/79/63
f 63/81/65 67/80/64 68/83/67
f 65/79/63 71/84/68 66/74/58
f 64/77/61 68/83/67 69/85/69
f 69/85/69 74/86/70 70/82/66
f 68/83/67 67/80/64 72/87/71
f 70/82/66 75/88/72 71/84/68
f 68/83/67 73/89/73 69/85/69
f 74/86/70 79/90/74 75/88/72
f 72/87/71 77/91/75 73/89/73
f 73/89/73 78/92/76 74/86/70
f 72/87/71 67/80/64 76/93/77
f 76/94/77 81/95/78 77/96/75
f 77/96/75 82/97/79 78/98/76
f 76/94/77 67/99/64 80/100/80
f 78/98/76 83/101/81 79/102/74
f 81/95/78 86/103/82 82/97/79
f 80/100/80 67/99/64 84/104/83
f 82/97/79 87/105/84 83/101/81
f 80/100/80 85/106/85 81/95/78
f 84/104/83 67/99/64 88/107/86
f 86/103/82 91/108/87 87/105/84
f 85/106/85 88/107/86 89/109/88
f 86/103/82 89/109/88 90/110/89
f 91/108/87 94/111/90 95/112/91
f 89/109/88 92/113/92 93/114/93
f 89/109/88 94/111/90 90/110/89
f 88/107/86 67/99/64 92/113/92
f 94/115/90 97/116/94 98/117/95
f 92/118/92 67/119/64 96/120/96
f 94/115/90 99/121/97 95/122/91
f 92/118/92 97/116/94 93/123/93
f 97/116/94 102/124/98 98/117/95
f 96/120/96 67/119/64 100/125/99
f 98/117/95 103/126/100 99/121/97
f 96/120/96 101/127/101 97/116/94
f 102/124/98 107/128/102 103/126/100
f 101/127/101 104/129/103 105/130/104
f 101/127/101 106/131/105 102/124/98
f 100/125/99 67/119/64 104/129/103
f 106/131/105 111/132/106 107/128/102
f 105/130/104 108/133/107 109/134/108
f 105/130/104 110/135/109 106/131/105
f 104/129/103 67/119/64 108/133/107
f 109/136/108 114/137/110 110/138/109
f 108/139/107 67/140/64 112/141/111
f 111/142/106 114/137/110 115/143/112
f 109/136/108 112/141/111 113/144/113
f 113/144/113 118/145/114 114/137/110
f 112/141/111 67/140/64 116/146/115
f 114/137/110 119/147/116 115/143/112
f 113/144/113 116/146/115 117/148/117
f 119/147/116 122/149/118 123/150/119
f 116/146/115 121/151/120 117/148/117
f 117/148/117 122/149/118 118/145/114
f 116/146/115 67/140/64 120/152/121
f 120/152/121 60/153/62 121/151/120
f 122/149/118 60/153/62 61/154/57
f 120/152/121 67/140/64 59/155/60
f 123/150/119 61/154/57 62/156/59
f 91/157/87 115/158/112 123/159/119
f 7/1/1 14/11/11 13/2/2
f 12/4/4 11/14/12 4/5/5
f 3/7/7 10/160/122 9/8/8
f 1/10/10 8/16/13 14/11/11
f 13/12/2 12/4/4 5/6/6
f 11/14/12 10/161/122 3/15/7
f 2/9/9 9/8/8 8/16/13
f 6/3/3 20/29/22 21/17/14
f 18/18/15 19/21/18 5/6/6
f 2/9/9 16/23/19 17/19/16
f 7/1/1 21/17/14 15/20/17
f 19/21/18 20/26/22 6/13/3
f 17/22/16 18/18/15 4/5/5
f 1/10/10 15/20/17 16/23/19
f 21/17/14 28/30/25 22/24/20
f 26/25/21 27/36/27 20/26/22
f 24/27/23 25/31/26 18/18/15
f 15/20/17 22/24/20 23/28/24
f 20/29/22 27/33/27 28/30/25
f 25/31/26 26/25/21 19/21/18
f 16/23/19 23/28/24 24/32/23
f 36/37/29 43/47/39 42/38/30
f 41/40/32 40/50/40 33/41/33
f 32/43/35 39/162/123 38/44/36
f 30/46/38 37/52/41 43/47/39
f 42/48/30 41/40/32 34/42/34
f 40/50/40 39/163/123 32/51/35
f 31/45/37 38/44/36 37/52/41
f 35/39/31 49/65/50 50/53/42
f 47/54/43 48/57/46 34/42/34
f 31/45/37 45/59/47 46/55/44
f 36/37/29 50/53/42 44/56/45
f 48/57/46 49/62/50 35/49/31
f 46/58/44 47/54/43 33/41/33
f 30/46/38 44/56/45 45/59/47
f 50/53/42 57/66/53 51/60/48
f 55/61/49 56/72/55 49/62/50
f 53/63/51 54/67/54 47/54/43
f 44/56/45 51/60/48 52/64/52
f 49/65/50 56/69/55 57/66/53
f 54/67/54 55/61/49 48/57/46
f 45/59/47 52/64/52 53/68/51
f 61/73/57 65/79/63 66/74/58
f 59/76/60 63/81/65 64/77/61
f 61/73/57 60/78/62 64/77/61
f 64/77/61 69/85/69 70/82/66
f 65/79/63 70/82/66 71/84/68
f 64/77/61 63/81/65 68/83/67
f 69/85/69 73/89/73 74/86/70
f 70/82/66 74/86/70 75/88/72
f 68/83/67 72/87/71 73/89/73
f 74/86/70 78/92/76 79/90/74
f 72/87/71 76/93/77 77/91/75
f 73/89/73 77/91/75 78/92/76
f 76/94/77 80/100/80 81/95/78
f 77/96/75 81/95/78 82/97/79
f 78/98/76 82/97/79 83/101/81
f 81/95/78 85/106/85 86/103/82
f 82/97/79 86/103/82 87/105/84
f 80/100/80 84/104/83 85/106/85
f 86/103/82 90/110/89 91/108/87
f 85/106/85 84/104/83 88/107/86
f 86/103/82 85/106/85 89/109/88
f 91/108/87 90/110/89 94/111/90
f 89/109/88 88/107/86 92/113/92
f 89/109/88 93/114/93 94/111/90
f 94/115/90 93/123/93 97/116/94
f 94/115/90 98/117/95 99/121/97
f 92/118/92 96/120/96 97/116/94
f 97/116/94 101/127/101 102/124/98
f 98/117/95 102/124/98 103/126/100
f 96/120/96 100/125/99 101/127/101
f 102/124/98 106/131/105 107/128/102
f 101/127/101 100/125/99 104/129/103
f 101/127/101 105/130/104 106/131/105
f 106/131/105 110/135/109 111/132/106
f 105/130/104 104/129/103 108/133/107
f 105/130/104 109/134/108 110/135/109
f 109/136/108 113/144/113 114/137/110
f 111/142/106 110/138/109 114/137/110
f 109/136/108 108/139/107 112/141/111
f 113/144/113 117/148/117 118/145/114
f 114/137/110 118/145/114 119/147/116
f 113/144/113 112/141/111 116/146/115
f 119/147/116 118/145/114 122/149/118
f 116/146/115 120/152/121 121/151/120
f 117/148/117 121/151/120 122/149/118
f 120/152/121 59/155/60 60/153/62
f 122/149/118 121/151/120 60/153/62
f 123/150/119 122/149/118 61/154/57
f 123/159/119 62/164/59 66/165/58
f 66/165/58 71/166/68 75/167/72
f 75/167/72 79/168/74 91/157/87
f 83/169/81 87/170/84 91/157/87
f 91/157/87 95/171/91 99/172/97
f 99/172/97 103/173/100 107/174/102
f 107/174/102 111/175/106 115/158/112
f 115/158/112 119/176/116 123/159/119
f 123/159/119 66/165/58 75/167/72
f 79/168/74 83/169/81 91/157/87
f 91/157/87 99/172/97 107/174/102
f 107/174/102 115/158/112 91/157/87
f 123/159/119 75/167/72 91/157/87
