# Blender v2.78 (sub 0) OBJ File: ''
# www.blender.org
o Plane
v -0.602435 0.000000 0.599973
v 0.597510 0.000000 0.599973
v -0.602435 0.000000 -0.599973
v 0.597510 0.000000 -0.599973
v -0.848370 0.000000 0.000000
v -0.002463 0.000000 0.845908
v 0.843445 0.000000 0.000000
v -0.002463 0.000000 -0.845908
v -0.345070 0.464748 0.342607
v 0.340144 0.464748 0.342607
v -0.345070 0.464748 -0.342607
v 0.340144 0.464748 -0.342607
v -0.485508 0.464748 0.000000
v -0.002463 0.464748 0.483045
v 0.480582 0.464748 0.000000
v -0.002463 0.464748 -0.483045
v -0.241547 1.396405 0.239085
v 0.236622 1.396405 0.239085
v -0.241547 1.396405 -0.239085
v 0.236622 1.396405 -0.239085
v -0.339551 1.396405 0.000000
v -0.002463 1.396405 0.337088
v 0.334625 1.396405 0.000000
v -0.002463 1.396405 -0.337088
v -0.227042 4.063970 0.239255
v 0.184653 4.063970 0.239255
v -0.276028 4.063970 -0.218179
v 0.190346 4.063532 -0.256900
v -0.311421 4.063970 0.033408
v -0.021194 4.063970 0.323635
v 0.269032 4.063970 0.033408
v -0.021194 4.063970 -0.322638
v -0.172595 6.310079 0.149152
v 0.125709 6.310079 0.149152
v -0.172595 6.310079 -0.149152
v 0.125709 6.310079 -0.149152
v -0.233734 6.310079 0.000000
v -0.023443 6.310079 0.210291
v 0.186847 6.310079 0.000000
v -0.023443 6.310079 -0.210291
v -0.046644 7.492320 0.009672
v 0.095613 4.900020 0.108995
v 0.187151 4.736662 0.108995
v 0.084720 4.919457 -0.115738
v 0.198043 4.717226 -0.115738
v 0.076851 4.933501 0.015367
v 0.141382 4.818342 0.147375
v 0.205912 4.703181 0.015367
v 0.141382 4.818342 -0.163250
v 1.097221 5.423396 0.063759
v 1.171457 5.318514 0.065315
v 1.096482 5.420967 -0.064721
v 1.170719 5.316086 -0.063165
v 1.081636 5.443677 -0.000800
v 1.134490 5.371452 0.090869
v 1.186303 5.295805 0.001394
v 1.133449 5.368028 -0.090276
v 2.186103 6.473021 0.005926
v 0.091860 4.023390 -0.065182
v -0.006053 3.820024 -0.121900
v 0.004355 4.022834 0.201500
v -0.116859 3.771073 0.131285
v 0.070618 4.054759 0.054736
v 0.059837 3.925935 -0.137932
v -0.067431 3.768030 -0.025231
v -0.077216 3.891721 0.221347
v -1.113916 4.649605 -0.406970
v -1.197401 4.520243 -0.449426
v -1.173294 4.639382 -0.259062
v -1.256779 4.510019 -0.301519
v -1.126495 4.671007 -0.324314
v -1.143489 4.587018 -0.458512
v -1.244201 4.488617 -0.384174
v -1.227207 4.572605 -0.249976
v -1.862228 5.725055 -0.557268
v -1.944707 5.680552 -0.592969
v -1.897831 5.716167 -0.463933
v -1.980311 5.671664 -0.499635
v -1.863124 5.729732 -0.503283
v -1.896170 5.704625 -0.594248
v -1.979413 5.666986 -0.553619
v -1.946369 5.692093 -0.462655
v -2.310921 6.887618 -0.563834
vt 0.1682 0.0002
vt 0.2606 0.0977
vt 0.1682 0.0986
vt 0.6737 0.0005
vt 0.5903 0.0998
vt 0.5932 -0.0012
vt 0.3439 0.0000
vt 0.2605 -0.0011
vt 0.0010 -0.0002
vt 0.0796 0.0976
vt -0.0008 0.0964
vt 0.3437 -0.0001
vt 0.4213 0.0990
vt 0.3442 0.0986
vt 0.5043 0.0002
vt 0.4192 0.0011
vt 0.0791 0.0011
vt 0.5051 0.0999
vt 0.0806 0.2504
vt -0.0005 0.2502
vt 0.4202 0.2501
vt 0.3409 0.2494
vt 0.5859 0.2502
vt 0.5042 0.2500
vt 0.2555 0.2511
vt 0.1682 0.2510
vt 0.6729 0.0970
vt 0.3425 0.0981
vt 0.6707 0.2533
vt 0.5770 0.6563
vt 0.3251 0.6566
vt 0.2500 0.6510
vt -0.0003 0.6582
vt 0.4059 0.6566
vt 0.3248 0.6553
vt 0.4871 0.6618
vt 0.0827 0.6554
vt 0.1594 0.6568
vt 0.1677 0.9975
vt 0.0906 0.9963
vt 0.5674 0.9984
vt 0.4766 0.9962
vt 0.2384 0.9979
vt 0.6406 0.9998
vt 0.3107 0.9991
vt 0.0014 0.9976
vt 0.3101 0.9948
vt 0.3972 0.9985
vt 0.7914 0.5309
vt 0.8156 0.5355
vt 0.7668 0.7130
vt 0.7032 0.5330
vt 0.7341 0.5383
vt 0.7178 0.7092
vt 0.8388 0.5436
vt 0.7549 0.5517
vt 0.8606 0.5551
vt 0.7892 0.5812
vt 0.6665 0.5884
vt 0.7668 0.5298
vt 0.8248 0.8247
vt 0.8072 0.7827
vt 0.8491 0.7652
vt 0.6724 0.0665
vt 0.8451 0.0578
vt 0.8450 0.0684
vt 0.6766 0.1247
vt 0.8480 0.0894
vt 0.8498 0.0999
vt 0.6744 0.0309
vt 0.6733 0.0463
vt 0.6740 0.1047
vt 0.8462 0.0790
vt 0.6760 0.0155
vt 0.8464 0.0473
vt 0.6727 0.0856
vt 0.6783 0.0002
vt 0.8486 0.0369
vt 0.8511 0.1104
vt 0.6788 0.1400
vt 0.8515 0.0022
vt 0.8620 0.0002
vt 0.8796 0.2355
vt 0.8611 0.5370
vt 0.8717 0.5363
vt 0.9028 0.7648
vt 0.8726 0.0002
vt 0.8822 0.5345
vt 0.8830 0.0020
vt 0.8925 0.5320
vt 0.8934 0.0043
vt 0.9028 0.5298
vt 0.7398 0.7397
vt 0.7323 0.7216
vt 0.7503 0.7141
vt 0.8876 0.4467
vt 0.6756 0.4807
vt 0.6737 0.4677
vt 0.8902 0.3738
vt 0.6724 0.3880
vt 0.6724 0.3748
vt 0.8898 0.4909
vt 0.8891 0.4717
vt 0.8899 0.3989
vt 0.6727 0.4011
vt 0.8898 0.5101
vt 0.6758 0.4939
vt 0.8882 0.4226
vt 0.6728 0.4143
vt 0.8891 0.5293
vt 0.6745 0.5070
vt 0.6732 0.3616
vt 0.8901 0.3546
vt 0.7326 0.3535
vt 0.7236 0.1456
vt 0.7361 0.1415
vt 0.7994 0.1416
vt 0.7983 0.3331
vt 0.7912 0.1405
vt 0.7409 0.3541
vt 0.7493 0.1405
vt 0.6983 0.1528
vt 0.6997 0.3524
vt 0.6852 0.1522
vt 0.7622 0.1433
vt 0.7162 0.3516
vt 0.7112 0.1502
vt 0.7743 0.1486
vt 0.7492 0.3541
vt 0.7244 0.3524
vt 0.6916 0.3540
vt 0.6724 0.1491
vt 0.8326 0.1419
vt 0.8407 0.3333
vt 0.8245 0.1436
vt 0.8076 0.1430
vt 0.8407 0.1405
vt 0.7829 0.1405
vt 0.7747 0.1418
vt 0.8163 0.1450
vt 0.8081 0.1457
vt 0.3420 0.2502
vt 0.6593 0.6635
vt 0.8245 0.7652
vt 0.8667 0.7825
vt 0.8667 0.8071
vt 0.8494 0.8247
vt 0.8072 0.8074
vt 0.8511 0.0266
vt 0.7397 0.7141
vt 0.7579 0.7215
vt 0.7579 0.7321
vt 0.7505 0.7397
vt 0.7323 0.7322
vt 0.8853 0.4462
vt 0.6724 0.5200
vt 0.7079 0.3515
vt 0.7574 0.3537
vn -0.7882 0.6154 0.0000
vn -0.6406 0.4233 0.6406
vn -0.9066 0.4219 0.0000
vn 0.0000 0.6154 -0.7882
vn 0.6406 0.4233 -0.6406
vn 0.5567 0.6166 -0.5567
vn 0.0000 0.6154 0.7882
vn -0.5567 0.6166 0.5567
vn -0.6406 0.4233 -0.6406
vn 0.0000 0.4219 -0.9066
vn 0.6406 0.4233 0.6406
vn 0.0000 0.4219 0.9066
vn 0.7882 0.6154 0.0000
vn 0.5567 0.6166 0.5567
vn -0.5567 0.6166 -0.5567
vn 0.9066 0.4219 0.0000
vn -0.7037 0.0776 -0.7062
vn -0.0003 0.0799 -0.9968
vn 0.7056 0.0862 0.7033
vn 0.0008 0.0816 0.9966
vn 0.7074 0.0867 -0.7014
vn 0.9958 0.0913 -0.0015
vn -0.7051 0.0813 0.7044
vn -0.9969 0.0783 0.0022
vn 0.7179 0.0313 -0.6955
vn -0.0007 0.0276 0.9996
vn -0.7056 0.0245 0.7082
vn -0.0443 0.0273 -0.9986
vn 0.7047 0.0302 0.7088
vn 0.9977 0.0298 0.0615
vn -0.7870 0.0264 -0.6164
vn -0.9917 0.0225 0.1263
vn -0.9545 -0.2981 0.0018
vn -0.6742 -0.2902 -0.6791
vn 0.6814 -0.2849 -0.6741
vn 0.9568 -0.2906 -0.0026
vn -0.6752 -0.2985 0.6745
vn 0.0005 -0.2858 -0.9583
vn 0.0019 -0.2933 0.9560
vn 0.6794 -0.2882 0.6748
vn -0.0190 0.9998 0.0079
vn -0.3350 0.7171 -0.6111
vn -0.8310 0.5562 -0.0030
vn -0.6474 0.3266 -0.6887
vn 0.5210 -0.8436 0.1296
vn 0.1420 -0.7561 -0.6389
vn 0.2818 -0.9593 0.0146
vn -0.3015 0.6394 0.7073
vn -0.4469 0.8844 0.1343
vn 0.4394 -0.6608 -0.6084
vn -0.2378 -0.2242 -0.9451
vn 0.0433 0.0254 0.9987
vn -0.6612 0.3294 0.6740
vn 0.0554 0.0322 -0.9979
vn 0.3825 -0.5931 0.7084
vn -0.2567 -0.2092 0.9436
vn 0.1296 -0.7374 0.6629
vn 0.6905 0.7233 0.0035
vn 0.0660 0.6637 0.7451
vn 0.5850 0.7599 0.2831
vn 0.1199 0.4659 0.8766
vn -0.4064 -0.8340 -0.3730
vn -0.7140 -0.5745 0.3999
vn -0.6255 -0.7208 -0.2985
vn 0.5068 0.7024 -0.4998
vn 0.4287 0.8973 0.1050
vn -0.6001 -0.7161 0.3564
vn -0.4264 -0.0919 0.8998
vn 0.3135 0.1132 -0.9428
vn 0.6401 0.5838 -0.4994
vn -0.4078 -0.0566 0.9113
vn -0.0808 -0.5321 -0.8428
vn 0.2756 0.0667 -0.9589
vn -0.2370 -0.4639 -0.8535
vn -0.3730 -0.2136 -0.9029
vn -0.4020 -0.0636 0.9134
vn -0.3114 0.9498 -0.0281
vn -0.8622 -0.3355 0.3795
vn -0.8450 -0.3953 -0.3601
vn 0.2946 0.2714 0.9162
vn 0.8085 0.4002 -0.4314
vn 0.3067 0.1134 -0.9450
vn 0.8096 0.4684 0.3536
s 1
f 5/1/1 9/2/2 13/3/3
f 8/4/4 12/5/5 4/6/6
f 6/7/7 9/2/2 1/8/8
f 8/9/4 11/10/9 16/11/10
f 6/12/7 10/13/11 14/14/12
f 7/15/13 10/13/11 2/16/14
f 5/1/1 11/10/9 3/17/15
f 7/15/13 12/5/5 15/18/16
f 16/11/10 19/19/17 24/20/18
f 14/14/12 18/21/19 22/22/20
f 15/18/16 18/21/19 10/13/11
f 13/3/3 19/19/17 11/10/9
f 15/18/16 20/23/21 23/24/22
f 13/3/3 17/25/23 21/26/24
f 16/27/10 20/23/21 12/5/5
f 14/28/12 17/25/23 9/2/2
f 24/29/18 28/30/25 20/23/21
f 17/25/23 30/31/26 25/32/27
f 19/19/17 32/33/28 24/20/18
f 22/22/20 26/34/29 30/35/26
f 18/21/19 31/36/30 26/34/29
f 21/26/24 27/37/31 19/19/17
f 20/23/21 31/36/30 23/24/22
f 17/25/23 29/38/32 21/26/24
f 27/37/31 37/39/33 35/40/34
f 31/36/30 36/41/35 39/42/36
f 29/38/32 33/43/37 37/39/33
f 28/30/25 40/44/38 36/41/35
f 25/32/27 38/45/39 33/43/37
f 32/33/28 35/40/34 40/46/38
f 26/34/29 38/47/39 30/35/26
f 31/36/30 34/48/40 26/34/29
f 34/49/40 39/50/36 41/51/41
f 35/52/34 37/53/33 41/54/41
f 39/50/36 36/55/35 41/51/41
f 37/53/33 33/56/37 41/54/41
f 36/55/35 40/57/38 41/51/41
f 33/56/37 38/58/39 41/54/41
f 40/59/38 35/52/34 41/54/41
f 38/60/39 34/49/40 41/51/41
f 39/61/36 38/62/39 37/63/33
f 44/64/42 54/65/43 52/66/44
f 48/67/45 53/68/46 56/69/47
f 42/70/48 54/65/43 46/71/49
f 45/72/50 57/73/51 53/68/46
f 47/74/52 50/75/53 42/70/48
f 49/76/54 52/66/44 57/73/51
f 43/77/55 55/78/56 47/74/52
f 48/67/45 51/79/57 43/80/55
f 51/81/57 56/82/47 58/83/58
f 52/84/44 54/85/43 58/86/58
f 56/82/47 53/87/46 58/83/58
f 54/85/43 50/88/53 58/86/58
f 53/87/46 57/89/51 58/83/58
f 50/88/53 55/90/56 58/86/58
f 57/89/51 52/91/44 58/83/58
f 55/90/56 51/92/57 58/86/58
f 56/93/47 55/94/56 54/95/43
f 61/96/59 71/97/60 69/98/61
f 65/99/62 70/100/63 73/101/64
f 59/102/65 71/97/60 63/103/66
f 62/104/67 74/105/68 70/100/63
f 64/106/69 67/107/70 59/102/65
f 66/108/71 69/109/61 74/105/68
f 60/110/72 72/111/73 64/106/69
f 65/99/62 68/112/74 60/113/72
f 76/114/75 72/115/73 68/116/74
f 82/117/76 83/118/77 78/119/78
f 81/120/79 68/116/74 73/121/64
f 71/122/60 77/123/80 69/124/61
f 70/125/63 81/120/79 73/121/64
f 75/126/81 71/122/60 67/127/70
f 74/128/68 78/129/78 70/125/63
f 80/130/82 67/127/70 72/115/73
f 69/124/61 82/131/76 74/132/68
f 80/133/82 83/134/77 75/135/81
f 77/136/80 83/118/77 82/117/76
f 76/137/75 83/134/77 80/133/82
f 81/138/79 83/118/77 76/139/75
f 79/140/83 83/134/77 77/141/80
f 78/119/78 83/118/77 81/138/79
f 75/135/81 83/134/77 79/140/83
f 5/1/1 1/8/8 9/2/2
f 8/4/4 16/27/10 12/5/5
f 6/7/7 14/28/12 9/2/2
f 8/9/4 3/17/15 11/10/9
f 6/12/7 2/16/14 10/13/11
f 7/15/13 15/18/16 10/13/11
f 5/1/1 13/3/3 11/10/9
f 7/15/13 4/6/6 12/5/5
f 16/11/10 11/10/9 19/19/17
f 14/14/12 10/13/11 18/21/19
f 15/18/16 23/24/22 18/21/19
f 13/3/3 21/26/24 19/19/17
f 15/18/16 12/5/5 20/23/21
f 13/3/3 9/2/2 17/25/23
f 16/27/10 24/29/18 20/23/21
f 14/28/12 22/142/20 17/25/23
f 24/29/18 32/143/28 28/30/25
f 17/25/23 22/142/20 30/31/26
f 19/19/17 27/37/31 32/33/28
f 22/22/20 18/21/19 26/34/29
f 18/21/19 23/24/22 31/36/30
f 21/26/24 29/38/32 27/37/31
f 20/23/21 28/30/25 31/36/30
f 17/25/23 25/32/27 29/38/32
f 27/37/31 29/38/32 37/39/33
f 31/36/30 28/30/25 36/41/35
f 29/38/32 25/32/27 33/43/37
f 28/30/25 32/143/28 40/44/38
f 25/32/27 30/31/26 38/45/39
f 32/33/28 27/37/31 35/40/34
f 26/34/29 34/48/40 38/47/39
f 31/36/30 39/42/36 34/48/40
f 33/144/37 37/63/33 38/62/39
f 35/145/34 40/146/38 37/63/33
f 36/147/35 39/61/36 40/146/38
f 34/148/40 38/62/39 39/61/36
f 37/63/33 40/146/38 39/61/36
f 44/64/42 46/71/49 54/65/43
f 48/67/45 45/72/50 53/68/46
f 42/70/48 50/75/53 54/65/43
f 45/72/50 49/76/54 57/73/51
f 47/74/52 55/78/56 50/75/53
f 49/76/54 44/64/42 52/66/44
f 43/77/55 51/149/57 55/78/56
f 48/67/45 56/69/47 51/79/57
f 50/150/53 54/95/43 55/94/56
f 52/151/44 57/152/51 54/95/43
f 53/153/46 56/93/47 57/152/51
f 51/154/57 55/94/56 56/93/47
f 54/95/43 57/152/51 56/93/47
f 61/96/59 63/103/66 71/97/60
f 65/99/62 62/104/67 70/100/63
f 59/102/65 67/107/70 71/97/60
f 62/104/67 66/108/71 74/105/68
f 64/106/69 72/111/73 67/107/70
f 66/108/71 61/155/59 69/109/61
f 60/110/72 68/156/74 72/111/73
f 65/99/62 73/101/64 68/112/74
f 76/114/75 80/130/82 72/115/73
f 81/120/79 76/114/75 68/116/74
f 71/122/60 79/157/83 77/123/80
f 70/125/63 78/129/78 81/120/79
f 75/126/81 79/157/83 71/122/60
f 74/128/68 82/158/76 78/129/78
f 80/130/82 75/126/81 67/127/70
f 69/124/61 77/123/80 82/131/76
